Lora-Regular Italic.ufo
<glyph name="exclam" format="1">
  <advance width="557"/>
  <unicode hex="0021"/>
  <outline>
    <contour>
      <point x="246" y="1467"/>
      <point x="205" y="1389"/>
      <point x="207" y="1316" type="curve" smooth="yes"/>
      <point x="238" y="471" type="line"/>
      <point x="313" y="471" type="line"/>
      <point x="434" y="1316" type="line" smooth="yes"/>
      <point x="445" y="1389"/>
      <point x="418" y="1467"/>
      <point x="330" y="1467" type="curve" smooth="yes"/>
    </contour>
    <contour>
      <point x="201" y="232"/>
      <point x="141" y="172"/>
      <point x="137" y="98" type="curve" smooth="yes"/>
      <point x="133" y="25"/>
      <point x="184" y="-33"/>
      <point x="248" y="-33" type="curve" smooth="yes"/>
      <point x="311" y="-33"/>
      <point x="373" y="25"/>
      <point x="377" y="98" type="curve" smooth="yes"/>
      <point x="381" y="172"/>
      <point x="332" y="232"/>
      <point x="264" y="232" type="curve" smooth="yes"/>
    </contour>
  </outline>
</glyph>
<glyph name="parenright" format="1">
  <advance width="610"/>
  <unicode hex="0029"/>
  <outline>
    <contour>
      <point x="69" y="1509" type="line"/>
      <point x="266" y="1229"/>
      <point x="358" y="897"/>
      <point x="337" y="512" type="curve" smooth="yes"/>
      <point x="317" y="127"/>
      <point x="190" y="-227"/>
      <point x="-33" y="-508" type="curve"/>
      <point x="14" y="-555" type="line"/>
      <point x="225" y="-369"/>
      <point x="509" y="57"/>
      <point x="534" y="512" type="curve" smooth="yes"/>
      <point x="556" y="967"/>
      <point x="317" y="1370"/>
      <point x="122" y="1556" type="curve"/>
    </contour>
  </outline>
</glyph>
<glyph name="plus" format="1">
  <advance width="1047"/>
  <unicode hex="002B"/>
  <outline>
    <contour>
      <point x="490" y="1112" type="line"/>
      <point x="468" y="705" type="line"/>
      <point x="74" y="707" type="line"/>
      <point x="68" y="592" type="line"/>
      <point x="462" y="593" type="line"/>
      <point x="439" y="168" type="line"/>
      <point x="562" y="168" type="line"/>
      <point x="585" y="594" type="line"/>
      <point x="980" y="596" type="line"/>
      <point x="986" y="702" type="line"/>
      <point x="591" y="704" type="line"/>
      <point x="613" y="1112" type="line"/>
    </contour>
  </outline>
</glyph>
<glyph name="one" format="1">
  <advance width="725"/>
  <unicode hex="0031"/>
  <outline>
    <contour>
      <point x="462" y="1467" type="line"/>
      <point x="63" y="1171" type="line"/>
      <point x="100" y="1111" type="line"/>
      <point x="350" y="1268" type="line"/>
      <point x="354" y="1268" type="line"/>
      <point x="309" y="301" type="line" smooth="yes"/>
      <point x="303" y="160"/>
      <point x="260" y="74"/>
      <point x="118" y="68" type="curve"/>
      <point x="116" y="0" type="line"/>
      <point x="624" y="0" type="line"/>
      <point x="628" y="90" type="line"/>
      <point x="456" y="82" type="line"/>
      <point x="465" y="121"/>
      <point x="467" y="170"/>
      <point x="469" y="223" type="curve" smooth="yes"/>
      <point x="532" y="1467" type="line"/>
    </contour>
  </outline>
</glyph>
<glyph name="three" format="1">
  <advance width="1116"/>
  <unicode hex="0033"/>
  <outline>
    <contour>
      <point x="295" y="1467"/>
      <point x="141" y="1283"/>
      <point x="141" y="1160" type="curve" smooth="yes"/>
      <point x="141" y="1101"/>
      <point x="180" y="1065"/>
      <point x="231" y="1065" type="curve" smooth="yes"/>
      <point x="283" y="1065"/>
      <point x="320" y="1106"/>
      <point x="320" y="1152" type="curve" smooth="yes"/>
      <point x="320" y="1176"/>
      <point x="315" y="1207"/>
      <point x="294" y="1232" type="curve"/>
      <point x="312" y="1301"/>
      <point x="418" y="1387"/>
      <point x="545" y="1387" type="curve" smooth="yes"/>
      <point x="741" y="1387"/>
      <point x="790" y="1258"/>
      <point x="782" y="1090" type="curve" smooth="yes"/>
      <point x="776" y="978"/>
      <point x="697" y="803"/>
      <point x="482" y="803" type="curve" smooth="yes"/>
      <point x="398" y="803" type="line"/>
      <point x="393" y="711" type="line"/>
      <point x="436" y="713"/>
      <point x="473" y="715"/>
      <point x="528" y="715" type="curve" smooth="yes"/>
      <point x="782" y="715"/>
      <point x="815" y="504"/>
      <point x="809" y="385" type="curve" smooth="yes"/>
      <point x="799" y="182"/>
      <point x="676" y="55"/>
      <point x="471" y="55" type="curve" smooth="yes"/>
      <point x="364" y="55"/>
      <point x="251" y="96"/>
      <point x="228" y="188" type="curve"/>
      <point x="249" y="214"/>
      <point x="255" y="245"/>
      <point x="255" y="270" type="curve" smooth="yes"/>
      <point x="255" y="317"/>
      <point x="220" y="362"/>
      <point x="163" y="362" type="curve" smooth="yes"/>
      <point x="109" y="362"/>
      <point x="68" y="323"/>
      <point x="63" y="263" type="curve" smooth="yes"/>
      <point x="53" y="131"/>
      <point x="188" y="-33"/>
      <point x="483" y="-33" type="curve" smooth="yes"/>
      <point x="741" y="-33"/>
      <point x="997" y="121"/>
      <point x="1012" y="399" type="curve" smooth="yes"/>
      <point x="1022" y="592"/>
      <point x="889" y="748"/>
      <point x="627" y="770" type="curve"/>
      <point x="862" y="827"/>
      <point x="968" y="982"/>
      <point x="975" y="1113" type="curve" smooth="yes"/>
      <point x="989" y="1371"/>
      <point x="794" y="1467"/>
      <point x="577" y="1467" type="curve" smooth="yes"/>
    </contour>
  </outline>
</glyph>
<glyph name="equal" format="1">
  <advance width="1202"/>
  <unicode hex="003D"/>
  <outline>
    <contour>
      <point x="153" y="776" type="line"/>
      <point x="1065" y="780" type="line"/>
      <point x="1071" y="891" type="line"/>
      <point x="159" y="895" type="line"/>
    </contour>
    <contour>
      <point x="133" y="383" type="line"/>
      <point x="1044" y="387" type="line"/>
      <point x="1050" y="498" type="line"/>
      <point x="139" y="502" type="line"/>
    </contour>
  </outline>
</glyph>
<glyph name="E" format="1">
  <advance width="1268"/>
  <unicode hex="0045"/>
  <outline>
    <contour>
      <point x="160" y="1434" type="line"/>
      <point x="156" y="1343" type="line"/>
      <point x="306" y="1352" type="line"/>
      <point x="299" y="1311"/>
      <point x="293" y="1260"/>
      <point x="291" y="1204" type="curve" smooth="yes"/>
      <point x="242" y="319" type="line" smooth="yes"/>
      <point x="236" y="174"/>
      <point x="242" y="74"/>
      <point x="89" y="68" type="curve"/>
      <point x="84" y="0" type="line"/>
      <point x="1133" y="0" type="line"/>
      <point x="1166" y="399" type="line"/>
      <point x="1096" y="399" type="line"/>
      <point x="1084" y="156"/>
      <point x="963" y="84"/>
      <point x="785" y="82" type="curve" smooth="yes"/>
      <point x="394" y="76" type="line"/>
      <point x="400" y="111"/>
      <point x="404" y="162"/>
      <point x="408" y="236" type="curve" smooth="yes"/>
      <point x="433" y="705" type="line"/>
      <point x="582" y="711" type="line" smooth="yes"/>
      <point x="758" y="717"/>
      <point x="826" y="711"/>
      <point x="818" y="530" type="curve"/>
      <point x="885" y="530" type="line"/>
      <point x="908" y="977" type="line"/>
      <point x="840" y="977" type="line"/>
      <point x="832" y="797"/>
      <point x="756" y="782"/>
      <point x="584" y="784" type="curve" smooth="yes"/>
      <point x="437" y="786" type="line"/>
      <point x="455" y="1114" type="line" smooth="yes"/>
      <point x="465" y="1280"/>
      <point x="469" y="1354"/>
      <point x="623" y="1358" type="curve" smooth="yes"/>
      <point x="799" y="1362" type="line" smooth="yes"/>
      <point x="953" y="1366"/>
      <point x="1074" y="1317"/>
      <point x="1061" y="1075" type="curve"/>
      <point x="1129" y="1075" type="line"/>
      <point x="1137" y="1434" type="line"/>
    </contour>
    <contour>
      <point x="1114" y="10" type="move" name="ogonek"/>
    </contour>
    <contour>
      <point x="679" y="0" type="move" name="bottom"/>
    </contour>
    <contour>
      <point x="743" y="1438" type="move" name="top"/>
    </contour>
  </outline>
</glyph>
<glyph name="H" format="1">
  <advance width="1583"/>
  <unicode hex="0048"/>
  <outline>
    <contour>
      <point x="1063" y="1434" type="line"/>
      <point x="1059" y="1343" type="line"/>
      <point x="1207" y="1352" type="line"/>
      <point x="1201" y="1311"/>
      <point x="1195" y="1260"/>
      <point x="1192" y="1204" type="curve" smooth="yes"/>
      <point x="1169" y="774" type="line"/>
      <point x="435" y="774" type="line"/>
      <point x="455" y="1139" type="line" smooth="yes"/>
      <point x="463" y="1285"/>
      <point x="475" y="1360"/>
      <point x="609" y="1366" type="curve"/>
      <point x="613" y="1434" type="line"/>
      <point x="160" y="1434" type="line"/>
      <point x="156" y="1343" type="line"/>
      <point x="304" y="1352" type="line"/>
      <point x="297" y="1311"/>
      <point x="292" y="1260"/>
      <point x="289" y="1204" type="curve" smooth="yes"/>
      <point x="242" y="319" type="line" smooth="yes"/>
      <point x="234" y="174"/>
      <point x="242" y="74"/>
      <point x="89" y="68" type="curve"/>
      <point x="84" y="0" type="line"/>
      <point x="537" y="0" type="line"/>
      <point x="541" y="90" type="line"/>
      <point x="394" y="82" type="line"/>
      <point x="400" y="117"/>
      <point x="404" y="170"/>
      <point x="408" y="244" type="curve" smooth="yes"/>
      <point x="431" y="684" type="line"/>
      <point x="1165" y="693" type="line"/>
      <point x="1145" y="319" type="line"/>
      <point x="1139" y="174"/>
      <point x="1145" y="74"/>
      <point x="992" y="68" type="curve"/>
      <point x="988" y="0" type="line"/>
      <point x="1440" y="0" type="line"/>
      <point x="1444" y="90" type="line"/>
      <point x="1297" y="82" type="line"/>
      <point x="1303" y="117"/>
      <point x="1307" y="170"/>
      <point x="1311" y="244" type="curve" smooth="yes"/>
      <point x="1358" y="1141" type="line" smooth="yes"/>
      <point x="1366" y="1287"/>
      <point x="1378" y="1360"/>
      <point x="1512" y="1366" type="curve"/>
      <point x="1516" y="1434" type="line"/>
    </contour>
    <contour>
      <point x="809" y="719" type="move" name="center"/>
    </contour>
    <contour>
      <point x="840" y="1438" type="move" name="top"/>
    </contour>
  </outline>
</glyph>
<glyph name="I" format="1">
  <advance width="682"/>
  <unicode hex="0049"/>
  <outline>
    <contour>
      <point x="160" y="1434" type="line"/>
      <point x="156" y="1343" type="line"/>
      <point x="304" y="1352" type="line"/>
      <point x="297" y="1311"/>
      <point x="291" y="1260"/>
      <point x="289" y="1204" type="curve" smooth="yes"/>
      <point x="242" y="319" type="line"/>
      <point x="236" y="174"/>
      <point x="242" y="74"/>
      <point x="89" y="68" type="curve"/>
      <point x="84" y="0" type="line"/>
      <point x="537" y="0" type="line"/>
      <point x="541" y="90" type="line"/>
      <point x="394" y="82" type="line"/>
      <point x="400" y="117"/>
      <point x="406" y="170"/>
      <point x="408" y="244" type="curve" smooth="yes"/>
      <point x="455" y="1134" type="line" smooth="yes"/>
      <point x="461" y="1280"/>
      <point x="465" y="1360"/>
      <point x="609" y="1366" type="curve"/>
      <point x="613" y="1434" type="line"/>
    </contour>
    <contour>
      <point x="536" y="-1" type="move" name="ogonek"/>
    </contour>
    <contour>
      <point x="403" y="1438" type="move" name="top"/>
    </contour>
  </outline>
</glyph>
<glyph name="J" format="1">
  <advance width="752"/>
  <unicode hex="004A"/>
  <outline>
    <contour>
      <point x="202" y="1434" type="line"/>
      <point x="198" y="1343" type="line"/>
      <point x="407" y="1352" type="line"/>
      <point x="354" y="314" type="line" smooth="yes"/>
      <point x="342" y="70"/>
      <point x="265" y="52"/>
      <point x="218" y="50" type="curve" smooth="yes"/>
      <point x="195" y="49"/>
      <point x="162" y="59"/>
      <point x="149" y="81" type="curve"/>
      <point x="155" y="95"/>
      <point x="158" y="115"/>
      <point x="158" y="128" type="curve" smooth="yes"/>
      <point x="158" y="170"/>
      <point x="129" y="224"/>
      <point x="62" y="220" type="curve" smooth="yes"/>
      <point x="5" y="216"/>
      <point x="-29" y="168"/>
      <point x="-29" y="112" type="curve" smooth="yes"/>
      <point x="-29" y="5"/>
      <point x="80" y="-33"/>
      <point x="179" y="-33" type="curve" smooth="yes"/>
      <point x="415" y="-33"/>
      <point x="513" y="115"/>
      <point x="532" y="500" type="curve" smooth="yes"/>
      <point x="566" y="1163" type="line" smooth="yes"/>
      <point x="572" y="1278"/>
      <point x="599" y="1366"/>
      <point x="734" y="1366" type="curve"/>
      <point x="739" y="1434" type="line"/>
    </contour>
    <contour>
      <point x="464" y="1438" type="move" name="top"/>
    </contour>
  </outline>
</glyph>
<glyph name="K" format="1">
  <advance width="1366"/>
  <unicode hex="004B"/>
  <outline>
    <contour>
      <point x="902" y="1434" type="line"/>
      <point x="897" y="1350" type="line"/>
      <point x="1027" y="1354" type="line"/>
      <point x="1027" y="1352" type="line"/>
      <point x="961" y="1307"/>
      <point x="905" y="1236"/>
      <point x="869" y="1182" type="curve" smooth="yes"/>
      <point x="596" y="778" type="line"/>
      <point x="436" y="778" type="line"/>
      <point x="455" y="1134" type="line" smooth="yes"/>
      <point x="463" y="1280"/>
      <point x="475" y="1360"/>
      <point x="609" y="1366" type="curve"/>
      <point x="613" y="1434" type="line"/>
      <point x="160" y="1434" type="line"/>
      <point x="156" y="1343" type="line"/>
      <point x="304" y="1352" type="line"/>
      <point x="297" y="1311"/>
      <point x="292" y="1260"/>
      <point x="289" y="1204" type="curve" smooth="yes"/>
      <point x="242" y="319" type="line"/>
      <point x="236" y="174"/>
      <point x="242" y="74"/>
      <point x="89" y="68" type="curve"/>
      <point x="84" y="0" type="line"/>
      <point x="537" y="0" type="line"/>
      <point x="541" y="90" type="line"/>
      <point x="394" y="82" type="line"/>
      <point x="400" y="117"/>
      <point x="404" y="170"/>
      <point x="408" y="244" type="curve" smooth="yes"/>
      <point x="432" y="696" type="line"/>
      <point x="541" y="698" type="line"/>
      <point x="588" y="668"/>
      <point x="640" y="601"/>
      <point x="687" y="532" type="curve" smooth="yes"/>
      <point x="914" y="201" type="line"/>
      <point x="990" y="96"/>
      <point x="1070" y="0"/>
      <point x="1110" y="0" type="curve" smooth="yes"/>
      <point x="1352" y="0" type="line"/>
      <point x="1356" y="68" type="line"/>
      <point x="1268" y="68"/>
      <point x="1211" y="84"/>
      <point x="1067" y="291" type="curve"/>
      <point x="852" y="596" type="line" smooth="yes"/>
      <point x="807" y="659"/>
      <point x="768" y="723"/>
      <point x="693" y="770" type="curve"/>
      <point x="910" y="1090" type="line" smooth="yes"/>
      <point x="1061" y="1313"/>
      <point x="1166" y="1352"/>
      <point x="1338" y="1366" type="curve"/>
      <point x="1342" y="1434" type="line"/>
    </contour>
    <contour>
      <point x="754" y="1438" type="move" name="top"/>
    </contour>
    <contour>
      <point x="656" y="0" type="move" name="bottom"/>
    </contour>
  </outline>
</glyph>
<glyph name="L" format="1">
  <advance width="1182"/>
  <unicode hex="004C"/>
  <outline>
    <contour>
      <point x="158" y="1434" type="line"/>
      <point x="158" y="1343" type="line"/>
      <point x="304" y="1352" type="line"/>
      <point x="295" y="1311"/>
      <point x="292" y="1260"/>
      <point x="289" y="1204" type="curve" smooth="yes"/>
      <point x="240" y="319" type="line" smooth="yes"/>
      <point x="232" y="174"/>
      <point x="240" y="74"/>
      <point x="87" y="68" type="curve"/>
      <point x="82" y="0" type="line"/>
      <point x="1090" y="0" type="line"/>
      <point x="1125" y="424" type="line"/>
      <point x="1055" y="424" type="line"/>
      <point x="1043" y="181"/>
      <point x="947" y="85"/>
      <point x="775" y="82" type="curve" smooth="yes"/>
      <point x="392" y="76" type="line"/>
      <point x="398" y="111"/>
      <point x="402" y="162"/>
      <point x="406" y="236" type="curve" smooth="yes"/>
      <point x="453" y="1114" type="line"/>
      <point x="459" y="1260"/>
      <point x="463" y="1360"/>
      <point x="607" y="1366" type="curve"/>
      <point x="611" y="1434" type="line"/>
    </contour>
    <contour>
      <point x="393" y="1438" type="move" name="top"/>
    </contour>
    <contour>
      <point x="564" y="0" type="move" name="bottom"/>
    </contour>
  </outline>
</glyph>
<glyph name="S" format="1">
  <advance width="1159"/>
  <unicode hex="0053"/>
  <outline>
    <contour>
      <point x="250" y="1467"/>
      <point x="156" y="1243"/>
      <point x="148" y="1104" type="curve" smooth="yes"/>
      <point x="121" y="631"/>
      <point x="903" y="715"/>
      <point x="883" y="307" type="curve" smooth="yes"/>
      <point x="875" y="141"/>
      <point x="729" y="53"/>
      <point x="569" y="53" type="curve" smooth="yes"/>
      <point x="352" y="53"/>
      <point x="189" y="168"/>
      <point x="187" y="420" type="curve"/>
      <point x="107" y="420" type="line"/>
      <point x="96" y="-16" type="line"/>
      <point x="203" y="-16" type="line"/>
      <point x="197" y="55" type="line"/>
      <point x="300" y="-14"/>
      <point x="450" y="-33"/>
      <point x="555" y="-33" type="curve" smooth="yes"/>
      <point x="860" y="-33"/>
      <point x="1045" y="127"/>
      <point x="1055" y="354" type="curve"/>
      <point x="1081" y="840"/>
      <point x="291" y="768"/>
      <point x="311" y="1143" type="curve" smooth="yes"/>
      <point x="318" y="1272"/>
      <point x="420" y="1385"/>
      <point x="590" y="1385" type="curve" smooth="yes"/>
      <point x="830" y="1385"/>
      <point x="934" y="1197"/>
      <point x="936" y="1000" type="curve"/>
      <point x="1010" y="1000" type="line"/>
      <point x="1032" y="1449" type="line"/>
      <point x="928" y="1449" type="line"/>
      <point x="931" y="1362" type="line"/>
      <point x="824" y="1443"/>
      <point x="687" y="1467"/>
      <point x="582" y="1467" type="curve" smooth="yes"/>
    </contour>
    <contour>
      <point x="649" y="1438" type="move" name="top"/>
    </contour>
    <contour>
      <point x="597" y="0" type="move" name="bottom"/>
    </contour>
  </outline>
</glyph>
<glyph name="V" format="1">
  <advance width="1362"/>
  <unicode hex="0056"/>
  <outline>
    <contour>
      <point x="1009" y="1434" type="line"/>
      <point x="1005" y="1343" type="line"/>
      <point x="1163" y="1352" type="line"/>
      <point x="1145" y="1319"/>
      <point x="1124" y="1270"/>
      <point x="1095" y="1200" type="curve" smooth="yes"/>
      <point x="1046" y="1079"/>
      <point x="973" y="905"/>
      <point x="833" y="563" type="curve" smooth="yes"/>
      <point x="784" y="442"/>
      <point x="751" y="365"/>
      <point x="715" y="270" type="curve"/>
      <point x="710" y="270" type="line"/>
      <point x="680" y="362"/>
      <point x="624" y="512"/>
      <point x="565" y="666" type="curve" smooth="yes"/>
      <point x="502" y="840"/>
      <point x="454" y="981"/>
      <point x="397" y="1143" type="curve" smooth="yes"/>
      <point x="348" y="1278"/>
      <point x="375" y="1356"/>
      <point x="514" y="1364" type="curve"/>
      <point x="518" y="1434" type="line"/>
      <point x="51" y="1434" type="line"/>
      <point x="47" y="1343" type="line"/>
      <point x="162" y="1348" type="line"/>
      <point x="166" y="1286"/>
      <point x="182" y="1208"/>
      <point x="235" y="1069" type="curve" smooth="yes"/>
      <point x="637" y="-23" type="line"/>
      <point x="690" y="-23" type="line"/>
      <point x="1151" y="1076"/>
      <point x="1168" y="1121"/>
      <point x="1186" y="1165" type="curve" smooth="yes"/>
      <point x="1247" y="1313"/>
      <point x="1300" y="1360"/>
      <point x="1421" y="1366" type="curve"/>
      <point x="1425" y="1434" type="line"/>
    </contour>
  </outline>
</glyph>
<glyph name="c" format="1">
  <advance width="969"/>
  <unicode hex="0063"/>
  <outline>
    <contour>
      <point x="230" y="1047"/>
      <point x="80" y="694"/>
      <point x="80" y="426" type="curve" smooth="yes"/>
      <point x="80" y="119"/>
      <point x="234" y="-23"/>
      <point x="475" y="-23" type="curve" smooth="yes"/>
      <point x="635" y="-23"/>
      <point x="791" y="64"/>
      <point x="895" y="301" type="curve"/>
      <point x="823" y="335" type="line"/>
      <point x="744" y="140"/>
      <point x="617" y="78"/>
      <point x="510" y="78" type="curve" smooth="yes"/>
      <point x="365" y="78"/>
      <point x="260" y="186"/>
      <point x="260" y="473" type="curve" smooth="yes"/>
      <point x="260" y="690"/>
      <point x="330" y="975"/>
      <point x="567" y="975" type="curve" smooth="yes"/>
      <point x="647" y="975"/>
      <point x="715" y="942"/>
      <point x="729" y="866" type="curve"/>
      <point x="707" y="842"/>
      <point x="703" y="813"/>
      <point x="703" y="789" type="curve" smooth="yes"/>
      <point x="703" y="757"/>
      <point x="726" y="704"/>
      <point x="790" y="706" type="curve" smooth="yes"/>
      <point x="844" y="707"/>
      <point x="877" y="748"/>
      <point x="877" y="807" type="curve" smooth="yes"/>
      <point x="877" y="942"/>
      <point x="746" y="1047"/>
      <point x="570" y="1047" type="curve" smooth="yes"/>
    </contour>
    <contour>
      <point x="577" y="1044" type="move" name="top"/>
    </contour>
    <contour>
      <point x="518" y="0" type="move" name="bottom"/>
    </contour>
  </outline>
</glyph>
<glyph name="d" format="1">
  <advance width="1137"/>
  <unicode hex="0064"/>
  <outline>
    <contour>
      <point x="961" y="1546" type="line"/>
      <point x="928" y="1518"/>
      <point x="881" y="1491"/>
      <point x="701" y="1491" type="curve"/>
      <point x="692" y="1409" type="line"/>
      <point x="842" y="1417" type="line"/>
      <point x="832" y="1378"/>
      <point x="826" y="1341"/>
      <point x="819" y="1292" type="curve" smooth="yes"/>
      <point x="807" y="1197"/>
      <point x="797" y="1113"/>
      <point x="789" y="1038" type="curve"/>
      <point x="752" y="1044"/>
      <point x="714" y="1047"/>
      <point x="674" y="1047" type="curve" smooth="yes"/>
      <point x="279" y="1047"/>
      <point x="78" y="765"/>
      <point x="78" y="366" type="curve" smooth="yes"/>
      <point x="78" y="151"/>
      <point x="166" y="-23"/>
      <point x="355" y="-23" type="curve" smooth="yes"/>
      <point x="475" y="-23"/>
      <point x="625" y="51"/>
      <point x="738" y="426" type="curve"/>
      <point x="744" y="426" type="line"/>
      <point x="723" y="324"/>
      <point x="713" y="240"/>
      <point x="713" y="162" type="curve" smooth="yes"/>
      <point x="713" y="51"/>
      <point x="760" y="-23"/>
      <point x="871" y="-23" type="curve" smooth="yes"/>
      <point x="1034" y="-23"/>
      <point x="1118" y="170"/>
      <point x="1137" y="266" type="curve"/>
      <point x="1077" y="279" type="line"/>
      <point x="1037" y="133"/>
      <point x="975" y="80"/>
      <point x="930" y="80" type="curve" smooth="yes"/>
      <point x="877" y="80"/>
      <point x="875" y="135"/>
      <point x="875" y="188" type="curve" smooth="yes"/>
      <point x="875" y="336"/>
      <point x="905" y="612"/>
      <point x="934" y="874" type="curve"/>
      <point x="971" y="1194" type="line" smooth="yes"/>
      <point x="981" y="1286"/>
      <point x="1004" y="1444"/>
      <point x="1020" y="1546" type="curve"/>
    </contour>
    <contour>
      <point x="686" y="973"/>
      <point x="734" y="968"/>
      <point x="779" y="953" type="curve"/>
      <point x="762" y="801"/>
      <point x="748" y="687"/>
      <point x="727" y="592" type="curve" smooth="yes"/>
      <point x="668" y="323"/>
      <point x="527" y="73"/>
      <point x="398" y="73" type="curve" smooth="yes"/>
      <point x="291" y="73"/>
      <point x="254" y="216"/>
      <point x="254" y="402" type="curve" smooth="yes"/>
      <point x="254" y="652"/>
      <point x="350" y="973"/>
      <point x="639" y="973" type="curve" smooth="yes"/>
    </contour>
    <contour>
      <point x="596" y="524" type="move" name="center"/>
    </contour>
    <contour>
      <point x="1144" y="1048" type="move" name="topright"/>
    </contour>
  </outline>
</glyph>
<glyph name="h" format="1">
  <advance width="1171"/>
  <unicode hex="0068"/>
  <outline>
    <contour>
      <point x="369" y="1546" type="line"/>
      <point x="336" y="1518"/>
      <point x="289" y="1491"/>
      <point x="109" y="1491" type="curve"/>
      <point x="100" y="1409" type="line"/>
      <point x="244" y="1417" type="line"/>
      <point x="238" y="1382"/>
      <point x="236" y="1378"/>
      <point x="225" y="1309" type="curve" smooth="yes"/>
      <point x="178" y="991"/>
      <point x="123" y="240"/>
      <point x="123" y="53" type="curve" smooth="yes"/>
      <point x="123" y="31"/>
      <point x="123" y="18"/>
      <point x="125" y="0" type="curve"/>
      <point x="293" y="0" type="line"/>
      <point x="291" y="35"/>
      <point x="289" y="68"/>
      <point x="289" y="109" type="curve" smooth="yes"/>
      <point x="289" y="487"/>
      <point x="498" y="951"/>
      <point x="680" y="951" type="curve" smooth="yes"/>
      <point x="760" y="951"/>
      <point x="778" y="873"/>
      <point x="778" y="826" type="curve" smooth="yes"/>
      <point x="778" y="611"/>
      <point x="719" y="327"/>
      <point x="719" y="175" type="curve" smooth="yes"/>
      <point x="719" y="48"/>
      <point x="756" y="-23"/>
      <point x="885" y="-23" type="curve" smooth="yes"/>
      <point x="1049" y="-23"/>
      <point x="1127" y="169"/>
      <point x="1145" y="265" type="curve"/>
      <point x="1094" y="278" type="line"/>
      <point x="1053" y="132"/>
      <point x="989" y="79"/>
      <point x="944" y="79" type="curve" smooth="yes"/>
      <point x="895" y="79"/>
      <point x="889" y="124"/>
      <point x="889" y="175" type="curve" smooth="yes"/>
      <point x="889" y="292"/>
      <point x="946" y="554"/>
      <point x="946" y="781" type="curve" smooth="yes"/>
      <point x="946" y="923"/>
      <point x="885" y="1047"/>
      <point x="721" y="1047" type="curve" smooth="yes"/>
      <point x="588" y="1047"/>
      <point x="457" y="963"/>
      <point x="318" y="590" type="curve"/>
      <point x="311" y="590" type="line"/>
      <point x="322" y="733"/>
      <point x="354" y="1059"/>
      <point x="373" y="1198" type="curve" smooth="yes"/>
      <point x="385" y="1290"/>
      <point x="412" y="1444"/>
      <point x="428" y="1546" type="curve"/>
    </contour>
    <contour>
      <point x="613" y="524" type="move" name="center"/>
    </contour>
    <contour>
      <point x="334" y="1428" type="move" name="top"/>
    </contour>
  </outline>
</glyph>
<glyph name="p" format="1">
  <advance width="1169"/>
  <unicode hex="0070"/>
  <outline>
    <contour>
      <point x="680" y="1047"/>
      <point x="549" y="974"/>
      <point x="437" y="599" type="curve"/>
      <point x="430" y="599" type="line"/>
      <point x="459" y="745"/>
      <point x="516" y="1047"/>
      <point x="303" y="1047" type="curve" smooth="yes"/>
      <point x="140" y="1047"/>
      <point x="56" y="854"/>
      <point x="37" y="758" type="curve"/>
      <point x="97" y="746" type="line"/>
      <point x="137" y="891"/>
      <point x="199" y="944"/>
      <point x="244" y="944" type="curve" smooth="yes"/>
      <point x="297" y="944"/>
      <point x="299" y="889"/>
      <point x="299" y="836" type="curve" smooth="yes"/>
      <point x="299" y="731"/>
      <point x="248" y="297"/>
      <point x="211" y="-174" type="curve" smooth="yes"/>
      <point x="199" y="-334"/>
      <point x="201" y="-461"/>
      <point x="86" y="-461" type="curve"/>
      <point x="86" y="-522" type="line"/>
      <point x="473" y="-522" type="line"/>
      <point x="473" y="-438" type="line"/>
      <point x="344" y="-444" type="line"/>
      <point x="357" y="-397"/>
      <point x="357" y="-330"/>
      <point x="361" y="-274" type="curve" smooth="yes"/>
      <point x="377" y="-17" type="line"/>
      <point x="408" y="-21"/>
      <point x="439" y="-23"/>
      <point x="473" y="-23" type="curve" smooth="yes"/>
      <point x="869" y="-23"/>
      <point x="1078" y="251"/>
      <point x="1078" y="650" type="curve" smooth="yes"/>
      <point x="1078" y="865"/>
      <point x="989" y="1047"/>
      <point x="801" y="1047" type="curve" smooth="yes"/>
    </contour>
    <contour>
      <point x="871" y="951"/>
      <point x="901" y="800"/>
      <point x="901" y="613" type="curve" smooth="yes"/>
      <point x="901" y="364"/>
      <point x="797" y="47"/>
      <point x="508" y="47" type="curve" smooth="yes"/>
      <point x="463" y="47"/>
      <point x="426" y="57"/>
      <point x="383" y="71" type="curve"/>
      <point x="389" y="143"/>
      <point x="396" y="205"/>
      <point x="406" y="266" type="curve" smooth="yes"/>
      <point x="457" y="598"/>
      <point x="609" y="951"/>
      <point x="758" y="951" type="curve" smooth="yes"/>
    </contour>
  </outline>
</glyph>
<glyph name="q" format="1">
  <advance width="1061"/>
  <unicode hex="0071"/>
  <outline>
    <contour>
      <point x="283" y="1043"/>
      <point x="76" y="756"/>
      <point x="78" y="357" type="curve" smooth="yes"/>
      <point x="80" y="142"/>
      <point x="170" y="-26"/>
      <point x="359" y="-23" type="curve" smooth="yes"/>
      <point x="480" y="-21"/>
      <point x="623" y="49"/>
      <point x="731" y="426" type="curve"/>
      <point x="738" y="426" type="line"/>
      <point x="713" y="240"/>
      <point x="690" y="31"/>
      <point x="674" y="-174" type="curve" smooth="yes"/>
      <point x="662" y="-334"/>
      <point x="664" y="-461"/>
      <point x="549" y="-461" type="curve"/>
      <point x="549" y="-522" type="line"/>
      <point x="936" y="-522" type="line"/>
      <point x="936" y="-438" type="line"/>
      <point x="807" y="-444" type="line"/>
      <point x="819" y="-397"/>
      <point x="824" y="-330"/>
      <point x="828" y="-274" type="curve" smooth="yes"/>
      <point x="852" y="88"/>
      <point x="918" y="682"/>
      <point x="944" y="1026" type="curve"/>
      <point x="883" y="1039"/>
      <point x="746" y="1047"/>
      <point x="678" y="1047" type="curve" smooth="yes"/>
    </contour>
    <contour>
      <point x="699" y="977"/>
      <point x="750" y="971"/>
      <point x="791" y="959" type="curve"/>
      <point x="772" y="594"/>
      <point x="596" y="75"/>
      <point x="402" y="73" type="curve" smooth="yes"/>
      <point x="289" y="73"/>
      <point x="256" y="209"/>
      <point x="254" y="396" type="curve" smooth="yes"/>
      <point x="252" y="645"/>
      <point x="357" y="973"/>
      <point x="645" y="977" type="curve" smooth="yes"/>
    </contour>
  </outline>
</glyph>
<glyph name="s" format="1">
  <advance width="877"/>
  <unicode hex="0073"/>
  <outline>
    <contour>
      <point x="254" y="1047"/>
      <point x="111" y="920"/>
      <point x="111" y="770" type="curve" smooth="yes"/>
      <point x="111" y="522"/>
      <point x="607" y="456"/>
      <point x="607" y="248" type="curve" smooth="yes"/>
      <point x="607" y="125"/>
      <point x="532" y="53"/>
      <point x="386" y="53" type="curve" smooth="yes"/>
      <point x="312" y="53"/>
      <point x="236" y="88"/>
      <point x="215" y="147" type="curve"/>
      <point x="229" y="169"/>
      <point x="233" y="190"/>
      <point x="233" y="210" type="curve" smooth="yes"/>
      <point x="233" y="254"/>
      <point x="204" y="297"/>
      <point x="150" y="297" type="curve" smooth="yes"/>
      <point x="100" y="297"/>
      <point x="61" y="256"/>
      <point x="61" y="196" type="curve" smooth="yes"/>
      <point x="61" y="55"/>
      <point x="224" y="-23"/>
      <point x="390" y="-23" type="curve" smooth="yes"/>
      <point x="618" y="-23"/>
      <point x="775" y="104"/>
      <point x="775" y="276" type="curve" smooth="yes"/>
      <point x="775" y="563"/>
      <point x="271" y="619"/>
      <point x="271" y="817" type="curve" smooth="yes"/>
      <point x="271" y="914"/>
      <point x="369" y="979"/>
      <point x="459" y="979" type="curve" smooth="yes"/>
      <point x="551" y="979"/>
      <point x="604" y="943"/>
      <point x="619" y="898" type="curve"/>
      <point x="605" y="875"/>
      <point x="600" y="854"/>
      <point x="600" y="833" type="curve" smooth="yes"/>
      <point x="600" y="790"/>
      <point x="633" y="751"/>
      <point x="682" y="751" type="curve" smooth="yes"/>
      <point x="731" y="751"/>
      <point x="768" y="788"/>
      <point x="768" y="846" type="curve" smooth="yes"/>
      <point x="768" y="968"/>
      <point x="619" y="1047"/>
      <point x="465" y="1047" type="curve" smooth="yes"/>
    </contour>
    <contour>
      <point x="466" y="1048" type="move" name="top"/>
    </contour>
    <contour>
      <point x="443" y="0" type="move" name="bottom"/>
    </contour>
  </outline>
</glyph>
<glyph name="y" format="1">
  <advance width="1053"/>
  <unicode hex="0079"/>
  <outline>
    <contour>
      <point x="741" y="1047"/>
      <point x="695" y="1015"/>
      <point x="695" y="957" type="curve" smooth="yes"/>
      <point x="695" y="914"/>
      <point x="728" y="876"/>
      <point x="777" y="876" type="curve" smooth="yes"/>
      <point x="797" y="876"/>
      <point x="815" y="881"/>
      <point x="827" y="889" type="curve"/>
      <point x="843" y="866"/>
      <point x="858" y="811"/>
      <point x="858" y="744" type="curve" smooth="yes"/>
      <point x="858" y="520"/>
      <point x="739" y="240"/>
      <point x="624" y="39" type="curve"/>
      <point x="620" y="39" type="line"/>
      <point x="611" y="125"/>
      <point x="604" y="182"/>
      <point x="589" y="248" type="curve" smooth="yes"/>
      <point x="546" y="438"/>
      <point x="499" y="650"/>
      <point x="438" y="816" type="curve" smooth="yes"/>
      <point x="401" y="915"/>
      <point x="344" y="1047"/>
      <point x="206" y="1047" type="curve" smooth="yes"/>
      <point x="38" y="1047"/>
      <point x="6" y="839"/>
      <point x="20" y="693" type="curve"/>
      <point x="86" y="700" type="line"/>
      <point x="73" y="826"/>
      <point x="104" y="907"/>
      <point x="155" y="914" type="curve" smooth="yes"/>
      <point x="208" y="920"/>
      <point x="235" y="855"/>
      <point x="256" y="808" type="curve" smooth="yes"/>
      <point x="370" y="532"/>
      <point x="458" y="163"/>
      <point x="505" y="-153" type="curve"/>
      <point x="462" y="-228"/>
      <point x="312" y="-459"/>
      <point x="193" y="-452" type="curve" smooth="yes"/>
      <point x="177" y="-452"/>
      <point x="163" y="-447"/>
      <point x="147" y="-439" type="curve"/>
      <point x="150" y="-371"/>
      <point x="117" y="-332"/>
      <point x="60" y="-332" type="curve" smooth="yes"/>
      <point x="23" y="-332"/>
      <point x="-25" y="-365"/>
      <point x="-25" y="-426" type="curve" smooth="yes"/>
      <point x="-25" y="-498"/>
      <point x="37" y="-550"/>
      <point x="131" y="-555" type="curve" smooth="yes"/>
      <point x="303" y="-561"/>
      <point x="477" y="-406"/>
      <point x="682" y="-35" type="curve" smooth="yes"/>
      <point x="821" y="219"/>
      <point x="954" y="512"/>
      <point x="954" y="785" type="curve" smooth="yes"/>
      <point x="954" y="914"/>
      <point x="915" y="1047"/>
      <point x="790" y="1047" type="curve" smooth="yes"/>
    </contour>
    <contour>
      <point x="526" y="1048" type="move" name="top"/>
    </contour>
  </outline>
</glyph>
<glyph name="bar" format="1">
  <advance width="481"/>
  <unicode hex="007C"/>
  <outline>
    <contour>
      <point x="218" y="1556" type="line"/>
      <point x="113" y="-555" type="line"/>
      <point x="241" y="-555" type="line"/>
      <point x="361" y="1556" type="line"/>
    </contour>
  </outline>
</glyph>
<glyph name="dieresis" format="1">
  <advance width="719"/>
  <unicode hex="00A8"/>
  <outline>
    <contour>
      <point x="167" y="1485"/>
      <point x="120" y="1435"/>
      <point x="116" y="1373" type="curve" smooth="yes"/>
      <point x="115" y="1310"/>
      <point x="154" y="1261"/>
      <point x="206" y="1261" type="curve" smooth="yes"/>
      <point x="255" y="1261"/>
      <point x="302" y="1310"/>
      <point x="304" y="1373" type="curve" smooth="yes"/>
      <point x="307" y="1435"/>
      <point x="271" y="1485"/>
      <point x="218" y="1485" type="curve" smooth="yes"/>
    </contour>
    <contour>
      <point x="468" y="1485"/>
      <point x="421" y="1435"/>
      <point x="417" y="1373" type="curve" smooth="yes"/>
      <point x="416" y="1310"/>
      <point x="455" y="1261"/>
      <point x="507" y="1261" type="curve" smooth="yes"/>
      <point x="556" y="1261"/>
      <point x="603" y="1310"/>
      <point x="605" y="1373" type="curve" smooth="yes"/>
      <point x="608" y="1435"/>
      <point x="572" y="1485"/>
      <point x="519" y="1485" type="curve" smooth="yes"/>
    </contour>
    <contour>
      <point x="344" y="1048" type="move" name="_top"/>
    </contour>
  </outline>
</glyph>
<glyph name="copyright" format="1">
  <advance width="1794"/>
  <unicode hex="00A9"/>
  <outline>
    <contour>
      <point x="475" y="1536"/>
      <point x="119" y="1167"/>
      <point x="94" y="713" type="curve"/>
      <point x="70" y="238"/>
      <point x="373" y="-102"/>
      <point x="860" y="-102" type="curve" smooth="yes"/>
      <point x="1315" y="-102"/>
      <point x="1692" y="260"/>
      <point x="1714" y="713" type="curve"/>
      <point x="1739" y="1167"/>
      <point x="1428" y="1536"/>
      <point x="948" y="1536" type="curve" smooth="yes"/>
    </contour>
    <contour>
      <point x="619" y="1227"/>
      <point x="430" y="950"/>
      <point x="418" y="709" type="curve" smooth="yes"/>
      <point x="404" y="428"/>
      <point x="604" y="209"/>
      <point x="887" y="209" type="curve" smooth="yes"/>
      <point x="1004" y="209"/>
      <point x="1186" y="252"/>
      <point x="1315" y="418" type="curve"/>
      <point x="1256" y="481" type="line"/>
      <point x="1176" y="387"/>
      <point x="1045" y="332"/>
      <point x="954" y="332" type="curve" smooth="yes"/>
      <point x="739" y="332"/>
      <point x="588" y="506"/>
      <point x="600" y="733" type="curve"/>
      <point x="612" y="985"/>
      <point x="795" y="1122"/>
      <point x="950" y="1122" type="curve" smooth="yes"/>
      <point x="1092" y="1122"/>
      <point x="1200" y="1051"/>
      <point x="1213" y="872" type="curve"/>
      <point x="1290" y="872" type="line"/>
      <point x="1309" y="1217" type="line"/>
      <point x="1210" y="1217" type="line"/>
      <point x="1215" y="1143" type="line"/>
      <point x="1213" y="1143" type="line"/>
      <point x="1145" y="1193"/>
      <point x="1048" y="1227"/>
      <point x="948" y="1227" type="curve" smooth="yes"/>
    </contour>
    <contour>
      <point x="1350" y="1442"/>
      <point x="1604" y="1098"/>
      <point x="1583" y="713" type="curve"/>
      <point x="1565" y="330"/>
      <point x="1282" y="-4"/>
      <point x="868" y="-4" type="curve" smooth="yes"/>
      <point x="442" y="-4"/>
      <point x="205" y="330"/>
      <point x="225" y="713" type="curve"/>
      <point x="248" y="1118"/>
      <point x="531" y="1442"/>
      <point x="938" y="1442" type="curve" smooth="yes"/>
    </contour>
  </outline>
</glyph>
<glyph name="ordfeminine" format="1">
  <advance width="823"/>
  <unicode hex="00AA"/>
  <outline>
    <contour>
      <point x="247" y="1467"/>
      <point x="131" y="1248"/>
      <point x="131" y="1004" type="curve" smooth="yes"/>
      <point x="131" y="841"/>
      <point x="192" y="779"/>
      <point x="286" y="779" type="curve" smooth="yes"/>
      <point x="358" y="779"/>
      <point x="458" y="814"/>
      <point x="540" y="1070" type="curve"/>
      <point x="544" y="1070" type="line"/>
      <point x="530" y="1004"/>
      <point x="520" y="945"/>
      <point x="520" y="896" type="curve" smooth="yes"/>
      <point x="520" y="824"/>
      <point x="544" y="779"/>
      <point x="614" y="779" type="curve" smooth="yes"/>
      <point x="718" y="779"/>
      <point x="755" y="877"/>
      <point x="774" y="951" type="curve"/>
      <point x="729" y="961" type="line"/>
      <point x="702" y="869"/>
      <point x="675" y="855"/>
      <point x="651" y="855" type="curve" smooth="yes"/>
      <point x="628" y="855"/>
      <point x="628" y="886"/>
      <point x="628" y="923" type="curve" smooth="yes"/>
      <point x="628" y="1007"/>
      <point x="659" y="1238"/>
      <point x="686" y="1445" type="curve"/>
      <point x="630" y="1459"/>
      <point x="553" y="1467"/>
      <point x="501" y="1467" type="curve" smooth="yes"/>
    </contour>
    <contour>
      <point x="501" y="1412"/>
      <point x="538" y="1402"/>
      <point x="559" y="1392" type="curve"/>
      <point x="551" y="1160"/>
      <point x="424" y="847"/>
      <point x="315" y="861" type="curve" smooth="yes"/>
      <point x="272" y="867"/>
      <point x="245" y="916"/>
      <point x="245" y="1027" type="curve" smooth="yes"/>
      <point x="245" y="1220"/>
      <point x="303" y="1402"/>
      <point x="460" y="1410" type="curve" smooth="yes"/>
    </contour>
  </outline>
</glyph>
<glyph name="uni00AD" format="1">
  <advance width="987"/>
  <unicode hex="00AD"/>
  <outline>
    <contour>
      <point x="131" y="723" type="line"/>
      <point x="131" y="586" type="line"/>
      <point x="858" y="594" type="line"/>
      <point x="858" y="723" type="line"/>
    </contour>
  </outline>
</glyph>
<glyph name="degree" format="1">
  <advance width="793"/>
  <unicode hex="00B0"/>
  <outline>
    <contour>
      <point x="277" y="1467"/>
      <point x="131" y="1328"/>
      <point x="121" y="1150" type="curve" smooth="yes"/>
      <point x="113" y="972"/>
      <point x="221" y="845"/>
      <point x="414" y="845" type="curve" smooth="yes"/>
      <point x="588" y="845"/>
      <point x="733" y="972"/>
      <point x="742" y="1150" type="curve" smooth="yes"/>
      <point x="752" y="1328"/>
      <point x="643" y="1467"/>
      <point x="451" y="1467" type="curve" smooth="yes"/>
    </contour>
    <contour>
      <point x="557" y="1373"/>
      <point x="624" y="1269"/>
      <point x="620" y="1156" type="curve" smooth="yes"/>
      <point x="614" y="1043"/>
      <point x="535" y="941"/>
      <point x="422" y="941" type="curve" smooth="yes"/>
      <point x="307" y="941"/>
      <point x="238" y="1043"/>
      <point x="244" y="1156" type="curve" smooth="yes"/>
      <point x="248" y="1269"/>
      <point x="330" y="1373"/>
      <point x="443" y="1373" type="curve" smooth="yes"/>
    </contour>
  </outline>
</glyph>
<glyph name="threesuperior" format="1">
  <advance width="733"/>
  <unicode hex="00B3"/>
  <outline>
    <contour>
      <point x="253" y="1467"/>
      <point x="160" y="1353"/>
      <point x="160" y="1271" type="curve" smooth="yes"/>
      <point x="160" y="1235"/>
      <point x="183" y="1212"/>
      <point x="214" y="1211" type="curve" smooth="yes"/>
      <point x="248" y="1210"/>
      <point x="272" y="1237"/>
      <point x="272" y="1265" type="curve" smooth="yes"/>
      <point x="272" y="1279"/>
      <point x="270" y="1293"/>
      <point x="259" y="1308" type="curve"/>
      <point x="270" y="1355"/>
      <point x="316" y="1401"/>
      <point x="384" y="1403" type="curve" smooth="yes"/>
      <point x="486" y="1407"/>
      <point x="525" y="1336"/>
      <point x="521" y="1256" type="curve" smooth="yes"/>
      <point x="519" y="1213"/>
      <point x="488" y="1102"/>
      <point x="330" y="1102" type="curve" smooth="yes"/>
      <point x="306" y="1102" type="line"/>
      <point x="304" y="1047" type="line"/>
      <point x="324" y="1049"/>
      <point x="341" y="1049"/>
      <point x="363" y="1049" type="curve" smooth="yes"/>
      <point x="505" y="1049"/>
      <point x="535" y="934"/>
      <point x="531" y="867" type="curve" smooth="yes"/>
      <point x="527" y="783"/>
      <point x="462" y="693"/>
      <point x="355" y="693" type="curve" smooth="yes"/>
      <point x="287" y="693"/>
      <point x="232" y="727"/>
      <point x="228" y="783" type="curve"/>
      <point x="244" y="800"/>
      <point x="248" y="820"/>
      <point x="248" y="837" type="curve" smooth="yes"/>
      <point x="248" y="869"/>
      <point x="227" y="899"/>
      <point x="189" y="899" type="curve" smooth="yes"/>
      <point x="138" y="899"/>
      <point x="117" y="849"/>
      <point x="117" y="809" type="curve" smooth="yes"/>
      <point x="118" y="711"/>
      <point x="205" y="631"/>
      <point x="351" y="627" type="curve" smooth="yes"/>
      <point x="537" y="623"/>
      <point x="651" y="729"/>
      <point x="658" y="867" type="curve" smooth="yes"/>
      <point x="663" y="977"/>
      <point x="597" y="1075"/>
      <point x="453" y="1086" type="curve"/>
      <point x="570" y="1114"/>
      <point x="634" y="1198"/>
      <point x="638" y="1268" type="curve" smooth="yes"/>
      <point x="644" y="1389"/>
      <point x="554" y="1467"/>
      <point x="412" y="1467" type="curve" smooth="yes"/>
    </contour>
  </outline>
</glyph>
<glyph name="eth" format="1">
  <advance width="1057"/>
  <unicode hex="00F0"/>
  <outline>
    <contour>
      <point x="559" y="1508" type="line"/>
      <point x="471" y="1546"/>
      <point x="367" y="1563"/>
      <point x="244" y="1553" type="curve"/>
      <point x="244" y="1484" type="line"/>
      <point x="346" y="1487"/>
      <point x="429" y="1469"/>
      <point x="495" y="1437" type="curve"/>
      <point x="367" y="1294" type="line"/>
      <point x="436" y="1229" type="line"/>
      <point x="570" y="1390" type="line"/>
      <point x="700" y="1285"/>
      <point x="747" y="1107"/>
      <point x="762" y="929" type="curve"/>
      <point x="702" y="1001"/>
      <point x="627" y="1027"/>
      <point x="541" y="1030" type="curve" smooth="yes"/>
      <point x="299" y="1038"/>
      <point x="82" y="803"/>
      <point x="82" y="428" type="curve" smooth="yes"/>
      <point x="82" y="131"/>
      <point x="246" y="-23"/>
      <point x="430" y="-23" type="curve" smooth="yes"/>
      <point x="696" y="-23"/>
      <point x="936" y="160"/>
      <point x="936" y="713" type="curve" smooth="yes"/>
      <point x="936" y="1040"/>
      <point x="848" y="1328"/>
      <point x="635" y="1467" type="curve"/>
      <point x="737" y="1589" type="line"/>
      <point x="678" y="1642" type="line"/>
    </contour>
    <contour>
      <point x="637" y="948"/>
      <point x="717" y="906"/>
      <point x="769" y="804" type="curve"/>
      <point x="769" y="776"/>
      <point x="770" y="748"/>
      <point x="770" y="721" type="curve" smooth="yes"/>
      <point x="770" y="469"/>
      <point x="703" y="55"/>
      <point x="467" y="55" type="curve" smooth="yes"/>
      <point x="348" y="55"/>
      <point x="258" y="196"/>
      <point x="258" y="450" type="curve" smooth="yes"/>
      <point x="258" y="776"/>
      <point x="418" y="948"/>
      <point x="541" y="948" type="curve" smooth="yes"/>
    </contour>
  </outline>
</glyph>
<glyph name="dcroat" format="1">
  <advance width="1137"/>
  <unicode hex="0111"/>
  <outline>
    <contour>
      <point x="436" y="1272" type="line"/>
      <point x="430" y="1183" type="line"/>
      <point x="1133" y="1191" type="line"/>
      <point x="1139" y="1272" type="line"/>
    </contour>
    <component base="d"/>
  </outline>
</glyph>
<glyph name="Lslash" format="1">
  <advance width="1182"/>
  <unicode hex="0141"/>
  <outline>
    <contour>
      <point x="160" y="1434" type="line"/>
      <point x="160" y="1343" type="line"/>
      <point x="306" y="1352" type="line"/>
      <point x="297" y="1311"/>
      <point x="294" y="1260"/>
      <point x="291" y="1204" type="curve" smooth="yes"/>
      <point x="263" y="703" type="line"/>
      <point x="97" y="582" type="line"/>
      <point x="90" y="467" type="line"/>
      <point x="257" y="590" type="line"/>
      <point x="242" y="319" type="line" smooth="yes"/>
      <point x="234" y="174"/>
      <point x="242" y="74"/>
      <point x="89" y="68" type="curve"/>
      <point x="84" y="0" type="line"/>
      <point x="1092" y="0" type="line"/>
      <point x="1127" y="424" type="line"/>
      <point x="1057" y="424" type="line"/>
      <point x="1045" y="181"/>
      <point x="949" y="85"/>
      <point x="777" y="82" type="curve" smooth="yes"/>
      <point x="394" y="76" type="line"/>
      <point x="400" y="111"/>
      <point x="404" y="162"/>
      <point x="408" y="236" type="curve" smooth="yes"/>
      <point x="434" y="720" type="line"/>
      <point x="643" y="874" type="line"/>
      <point x="650" y="985" type="line"/>
      <point x="440" y="831" type="line"/>
      <point x="455" y="1114" type="line"/>
      <point x="461" y="1260"/>
      <point x="465" y="1360"/>
      <point x="609" y="1366" type="curve"/>
      <point x="613" y="1434" type="line"/>
    </contour>
  </outline>
</glyph>
<glyph name="ring" format="1">
  <advance width="592"/>
  <unicode hex="02DA"/>
  <outline>
    <contour>
      <point x="205" y="1559"/>
      <point x="96" y="1475"/>
      <point x="94" y="1354" type="curve" smooth="yes"/>
      <point x="92" y="1225"/>
      <point x="188" y="1167"/>
      <point x="287" y="1167" type="curve" smooth="yes"/>
      <point x="385" y="1167"/>
      <point x="496" y="1247"/>
      <point x="498" y="1374" type="curve" smooth="yes"/>
      <point x="500" y="1501"/>
      <point x="401" y="1559"/>
      <point x="305" y="1559" type="curve" smooth="yes"/>
    </contour>
    <contour>
      <point x="360" y="1503"/>
      <point x="397" y="1438"/>
      <point x="393" y="1352" type="curve" smooth="yes"/>
      <point x="389" y="1280"/>
      <point x="346" y="1227"/>
      <point x="297" y="1225" type="curve" smooth="yes"/>
      <point x="233" y="1223"/>
      <point x="195" y="1292"/>
      <point x="199" y="1372" type="curve" smooth="yes"/>
      <point x="203" y="1444"/>
      <point x="248" y="1499"/>
      <point x="301" y="1501" type="curve" smooth="yes"/>
    </contour>
    <contour>
      <point x="279" y="1048" type="move" name="_top"/>
    </contour>
  </outline>
</glyph>
<glyph name="Lje-cy" format="1">
  <advance width="2050"/>
  <unicode hex="0409"/>
  <outline>
    <contour>
      <point x="747" y="1434" type="line"/>
      <point x="696" y="678"/>
      <point x="465" y="51"/>
      <point x="273" y="51" type="curve" smooth="yes"/>
      <point x="261" y="51"/>
      <point x="253" y="53"/>
      <point x="246" y="57" type="curve"/>
      <point x="258" y="71"/>
      <point x="259" y="83"/>
      <point x="261" y="102" type="curve" smooth="yes"/>
      <point x="266" y="145"/>
      <point x="237" y="202"/>
      <point x="170" y="202" type="curve" smooth="yes"/>
      <point x="110" y="202"/>
      <point x="77" y="153"/>
      <point x="74" y="98" type="curve" smooth="yes"/>
      <point x="69" y="8"/>
      <point x="136" y="-33"/>
      <point x="235" y="-33" type="curve" smooth="yes"/>
      <point x="599" y="-33"/>
      <point x="774" y="631"/>
      <point x="850" y="1434" type="curve"/>
    </contour>
    <contour>
      <point x="758" y="1284" type="line"/>
      <point x="830" y="1240" type="line"/>
      <point x="839" y="1304"/>
      <point x="878" y="1347"/>
      <point x="973" y="1349" type="curve"/>
      <point x="774" y="1347" type="line"/>
    </contour>
    <contour>
      <point x="1126" y="1015" type="line"/>
      <point x="1090" y="330" type="line" smooth="yes"/>
      <point x="1082" y="176"/>
      <point x="1088" y="72"/>
      <point x="935" y="68" type="curve"/>
      <point x="930" y="0" type="line"/>
      <point x="1521" y="0" type="line" smooth="yes"/>
      <point x="1779" y="0"/>
      <point x="1999" y="140"/>
      <point x="1999" y="420" type="curve" smooth="yes"/>
      <point x="1999" y="657"/>
      <point x="1843" y="797"/>
      <point x="1455" y="788" type="curve" smooth="yes"/>
      <point x="1284" y="784" type="line"/>
      <point x="1296" y="1015" type="line"/>
    </contour>
    <contour>
      <point x="1280" y="705" type="line"/>
      <point x="1345" y="709"/>
      <point x="1409" y="711"/>
      <point x="1491" y="711" type="curve" smooth="yes"/>
      <point x="1658" y="711"/>
      <point x="1819" y="631"/>
      <point x="1807" y="399" type="curve" smooth="yes"/>
      <point x="1795" y="184"/>
      <point x="1648" y="80"/>
      <point x="1458" y="80" type="curve" smooth="yes"/>
      <point x="1431" y="80"/>
      <point x="1304" y="78"/>
      <point x="1241" y="84" type="curve"/>
      <point x="1247" y="119"/>
      <point x="1251" y="170"/>
      <point x="1255" y="244" type="curve" smooth="yes"/>
    </contour>
    <contour>
      <point x="1296" y="1015" type="line"/>
      <point x="1302" y="1134" type="line" smooth="yes"/>
      <point x="1308" y="1280"/>
      <point x="1312" y="1360"/>
      <point x="1456" y="1366" type="curve"/>
      <point x="1460" y="1434" type="line"/>
      <point x="525" y="1434" type="line"/>
      <point x="521" y="1343" type="line"/>
      <point x="1151" y="1352" type="line"/>
      <point x="1144" y="1311"/>
      <point x="1138" y="1260"/>
      <point x="1136" y="1204" type="curve" smooth="yes"/>
      <point x="1126" y="1015" type="line"/>
    </contour>
  </outline>
</glyph>
<glyph name="Nje-cy" format="1">
  <advance width="2106"/>
  <unicode hex="040A"/>
  <outline>
    <contour>
      <point x="1149" y="784" type="line"/>
      <point x="435" y="784" type="line"/>
      <point x="455" y="1139" type="line" smooth="yes"/>
      <point x="463" y="1285"/>
      <point x="475" y="1360"/>
      <point x="609" y="1366" type="curve"/>
      <point x="613" y="1434" type="line"/>
      <point x="160" y="1434" type="line"/>
      <point x="156" y="1343" type="line"/>
      <point x="304" y="1352" type="line"/>
      <point x="297" y="1311"/>
      <point x="292" y="1260"/>
      <point x="289" y="1204" type="curve" smooth="yes"/>
      <point x="242" y="319" type="line" smooth="yes"/>
      <point x="234" y="174"/>
      <point x="242" y="74"/>
      <point x="89" y="68" type="curve"/>
      <point x="84" y="0" type="line"/>
      <point x="537" y="0" type="line"/>
      <point x="541" y="90" type="line"/>
      <point x="394" y="82" type="line"/>
      <point x="400" y="117"/>
      <point x="404" y="170"/>
      <point x="408" y="244" type="curve" smooth="yes"/>
      <point x="431" y="694" type="line"/>
      <point x="1145" y="703" type="line"/>
    </contour>
    <component base="Softsign-cy" xOffset="881"/>
  </outline>
</glyph>
<glyph name="U-cy" format="1">
  <advance width="1251"/>
  <unicode hex="0423"/>
  <outline>
    <contour>
      <point x="699" y="484" type="line"/>
      <point x="409" y="1143" type="line" smooth="yes"/>
      <point x="351" y="1274"/>
      <point x="356" y="1366"/>
      <point x="529" y="1366" type="curve"/>
      <point x="532" y="1434" type="line"/>
      <point x="38" y="1434" type="line"/>
      <point x="34" y="1343" type="line"/>
      <point x="161" y="1348" type="line"/>
      <point x="168" y="1296"/>
      <point x="184" y="1226"/>
      <point x="232" y="1119" type="curve" smooth="yes"/>
      <point x="602" y="301" type="line"/>
    </contour>
    <contour>
      <point x="568" y="242"/>
      <point x="509" y="149" type="curve" smooth="yes"/>
      <point x="456" y="64"/>
      <point x="425" y="46"/>
      <point x="374" y="65" type="curve"/>
      <point x="388" y="80"/>
      <point x="394" y="92"/>
      <point x="395" y="116" type="curve" smooth="yes"/>
      <point x="398" y="159"/>
      <point x="370" y="206"/>
      <point x="305" y="204" type="curve" smooth="yes"/>
      <point x="242" y="202"/>
      <point x="199" y="156"/>
      <point x="196" y="90" type="curve" smooth="yes"/>
      <point x="191" y="-5"/>
      <point x="272" y="-34"/>
      <point x="357" y="-34" type="curve" smooth="yes"/>
      <point x="500" y="-34"/>
      <point x="576" y="79"/>
      <point x="681" y="305" type="curve" smooth="yes"/>
      <point x="1054" y="1106" type="line" smooth="yes"/>
      <point x="1132" y="1274"/>
      <point x="1167" y="1357"/>
      <point x="1320" y="1366" type="curve"/>
      <point x="1323" y="1434" type="line"/>
      <point x="905" y="1434" type="line"/>
      <point x="901" y="1343" type="line"/>
      <point x="1062" y="1350" type="line"/>
      <point x="1032" y="1315"/>
      <point x="990" y="1212"/>
      <point x="959" y="1131" type="curve" smooth="yes"/>
      <point x="879" y="930"/>
    </contour>
  </outline>
</glyph>
<glyph name="Ef-cy" format="1">
  <advance width="1685"/>
  <unicode hex="0424"/>
  <outline>
    <contour>
      <point x="363" y="1327"/>
      <point x="120" y="1064"/>
      <point x="100" y="687" type="curve" smooth="yes"/>
      <point x="81" y="336"/>
      <point x="340" y="147"/>
      <point x="829" y="147" type="curve"/>
      <point x="834" y="231" type="line"/>
      <point x="459" y="231"/>
      <point x="283" y="365"/>
      <point x="303" y="724" type="curve" smooth="yes"/>
      <point x="321" y="1065"/>
      <point x="518" y="1245"/>
      <point x="865" y="1245" type="curve"/>
      <point x="870" y="1327" type="line"/>
    </contour>
    <contour>
      <point x="655" y="1555" type="line"/>
      <point x="650" y="1464" type="line"/>
      <point x="799" y="1473" type="line"/>
      <point x="791" y="1432"/>
      <point x="787" y="1381"/>
      <point x="784" y="1325" type="curve" smooth="yes"/>
      <point x="725" y="229" type="line"/>
      <point x="717" y="84"/>
      <point x="725" y="-16"/>
      <point x="571" y="-22" type="curve"/>
      <point x="567" y="-90" type="line"/>
      <point x="1028" y="-90" type="line"/>
      <point x="1033" y="0" type="line"/>
      <point x="884" y="-8" type="line"/>
      <point x="891" y="27"/>
      <point x="896" y="80"/>
      <point x="900" y="154" type="curve" smooth="yes"/>
      <point x="958" y="1235" type="line" smooth="yes"/>
      <point x="966" y="1381"/>
      <point x="958" y="1481"/>
      <point x="1112" y="1487" type="curve"/>
      <point x="1116" y="1555" type="line"/>
    </contour>
    <contour>
      <point x="1337" y="147"/>
      <point x="1578" y="363"/>
      <point x="1598" y="717" type="curve" smooth="yes"/>
      <point x="1617" y="1094"/>
      <point x="1360" y="1327"/>
      <point x="871" y="1327" type="curve"/>
      <point x="866" y="1243" type="line"/>
      <point x="1228" y="1243"/>
      <point x="1415" y="1065"/>
      <point x="1395" y="680" type="curve" smooth="yes"/>
      <point x="1377" y="365"/>
      <point x="1182" y="229"/>
      <point x="835" y="229" type="curve"/>
      <point x="830" y="147" type="line"/>
    </contour>
  </outline>
</glyph>
<glyph name="Tse-cy" format="1">
  <advance width="1474"/>
  <unicode hex="0426"/>
  <outline>
    <contour>
      <point x="1274" y="1141" type="line" smooth="yes"/>
      <point x="1282" y="1287"/>
      <point x="1294" y="1360"/>
      <point x="1428" y="1366" type="curve"/>
      <point x="1432" y="1434" type="line"/>
      <point x="979" y="1434" type="line"/>
      <point x="975" y="1343" type="line"/>
      <point x="1123" y="1352" type="line"/>
      <point x="1117" y="1311"/>
      <point x="1111" y="1260"/>
      <point x="1108" y="1204" type="curve" smooth="yes"/>
      <point x="1061" y="319" type="line" smooth="yes"/>
      <point x="1053" y="161"/>
      <point x="1042" y="82"/>
      <point x="913" y="82" type="curve"/>
      <point x="396.062" y="89.4371" type="line"/>
      <point x="400.042" y="117.549"/>
      <point x="404.021" y="170.383"/>
      <point x="408" y="244" type="curve" smooth="yes"/>
      <point x="455" y="1139" type="line" smooth="yes"/>
      <point x="463" y="1285"/>
      <point x="475" y="1360"/>
      <point x="609" y="1366" type="curve"/>
      <point x="613" y="1434" type="line"/>
      <point x="160" y="1434" type="line"/>
      <point x="156" y="1343" type="line"/>
      <point x="304" y="1352" type="line"/>
      <point x="297" y="1311"/>
      <point x="292" y="1260"/>
      <point x="289" y="1204" type="curve" smooth="yes"/>
      <point x="242" y="319" type="line" smooth="yes"/>
      <point x="234" y="174"/>
      <point x="242" y="74"/>
      <point x="89" y="68" type="curve"/>
      <point x="84" y="0" type="line"/>
      <point x="1356" y="0" type="line"/>
      <point x="1360" y="90" type="line"/>
      <point x="1213" y="82" type="line"/>
      <point x="1219" y="117"/>
      <point x="1223" y="170"/>
      <point x="1227" y="244" type="curve" smooth="yes"/>
    </contour>
    <contour>
      <point x="1260" y="0"/>
      <point x="1289" y="-129"/>
      <point x="1278" y="-363" type="curve"/>
      <point x="1363" y="-363" type="line"/>
      <point x="1384" y="91" type="line"/>
      <point x="1360" y="90" type="line"/>
      <point x="1125" y="0" type="line"/>
    </contour>
  </outline>
</glyph>
<glyph name="Sha-cy" format="1">
  <advance width="2061"/>
  <unicode hex="0428"/>
  <outline>
    <contour>
      <point x="455" y="1139" type="line"/>
      <point x="463" y="1285"/>
      <point x="475" y="1360"/>
      <point x="609" y="1366" type="curve"/>
      <point x="613" y="1434" type="line"/>
      <point x="160" y="1434" type="line"/>
      <point x="156" y="1343" type="line"/>
      <point x="304" y="1352" type="line"/>
      <point x="297" y="1311"/>
      <point x="292" y="1260"/>
      <point x="289" y="1204" type="curve" smooth="yes"/>
      <point x="242" y="319" type="line" smooth="yes"/>
      <point x="234" y="174"/>
      <point x="242" y="74"/>
      <point x="89" y="68" type="curve"/>
      <point x="84" y="0" type="line"/>
      <point x="537" y="0" type="line"/>
      <point x="394" y="82" type="line"/>
      <point x="400" y="117"/>
      <point x="404" y="170"/>
      <point x="408" y="244" type="curve"/>
    </contour>
    <contour>
      <point x="935" y="319" type="line"/>
      <point x="929" y="174"/>
      <point x="935" y="87"/>
      <point x="782" y="81" type="curve"/>
      <point x="778" y="0" type="line"/>
      <point x="1230" y="0" type="line"/>
      <point x="1087" y="82" type="line"/>
      <point x="1093" y="117"/>
      <point x="1097" y="170"/>
      <point x="1101" y="244" type="curve" smooth="yes"/>
      <point x="1148" y="1141" type="line" smooth="yes"/>
      <point x="1156" y="1287"/>
      <point x="1168" y="1360"/>
      <point x="1302" y="1366" type="curve"/>
      <point x="1306" y="1434" type="line"/>
      <point x="853" y="1434" type="line"/>
      <point x="849" y="1343" type="line"/>
      <point x="997" y="1352" type="line"/>
      <point x="991" y="1311"/>
      <point x="985" y="1260"/>
      <point x="982" y="1204" type="curve"/>
    </contour>
    <contour>
      <point x="1738" y="81" type="line"/>
      <point x="365" y="81" type="line"/>
      <point x="361" y="0" type="line"/>
      <point x="1734" y="0" type="line"/>
    </contour>
    <contour>
      <point x="1623" y="319" type="line"/>
      <point x="1617" y="174"/>
      <point x="1623" y="83"/>
      <point x="1470" y="81" type="curve"/>
      <point x="1466" y="0" type="line"/>
      <point x="1918" y="0" type="line"/>
      <point x="1922" y="90" type="line"/>
      <point x="1775" y="82" type="line"/>
      <point x="1781" y="117"/>
      <point x="1785" y="170"/>
      <point x="1789" y="244" type="curve" smooth="yes"/>
      <point x="1836" y="1141" type="line" smooth="yes"/>
      <point x="1844" y="1287"/>
      <point x="1856" y="1360"/>
      <point x="1990" y="1366" type="curve"/>
      <point x="1994" y="1434" type="line"/>
      <point x="1541" y="1434" type="line"/>
      <point x="1537" y="1343" type="line"/>
      <point x="1685" y="1352" type="line"/>
      <point x="1679" y="1311"/>
      <point x="1673" y="1260"/>
      <point x="1670" y="1204" type="curve"/>
    </contour>
  </outline>
</glyph>
<glyph name="Shcha-cy" format="1">
  <advance width="2036"/>
  <unicode hex="0429"/>
  <outline>
    <contour>
      <point x="1822" y="0"/>
      <point x="1851" y="-129"/>
      <point x="1840" y="-363" type="curve"/>
      <point x="1925" y="-363" type="line"/>
      <point x="1946" y="91" type="line"/>
      <point x="1922" y="90" type="line"/>
      <point x="1687" y="0" type="line"/>
    </contour>
    <component base="Sha-cy"/>
  </outline>
</glyph>
<glyph name="be-cy" format="1">
  <advance width="1067"/>
  <unicode hex="0431"/>
  <outline>
    <contour>
      <point x="156" y="720" type="line"/>
      <point x="194" y="985"/>
      <point x="282" y="1151"/>
      <point x="517" y="1221" type="curve" smooth="yes"/>
      <point x="603" y="1246"/>
      <point x="720" y="1245"/>
      <point x="823" y="1280" type="curve" smooth="yes"/>
      <point x="944" y="1320"/>
      <point x="1027" y="1401"/>
      <point x="1069" y="1533" type="curve"/>
      <point x="1009" y="1554" type="line"/>
      <point x="972" y="1480"/>
      <point x="906" y="1469"/>
      <point x="831" y="1449" type="curve" smooth="yes"/>
      <point x="747" y="1427"/>
      <point x="614" y="1431"/>
      <point x="497" y="1388" type="curve" smooth="yes"/>
      <point x="227" y="1289"/>
      <point x="105" y="970"/>
      <point x="81" y="612" type="curve" smooth="yes"/>
      <point x="52" y="177"/>
      <point x="246" y="-21"/>
      <point x="500" y="-21" type="curve" smooth="yes"/>
      <point x="735" y="-21"/>
      <point x="952" y="192"/>
      <point x="969" y="511" type="curve" smooth="yes"/>
      <point x="986" y="820"/>
      <point x="787" y="986"/>
      <point x="581" y="986" type="curve" smooth="yes"/>
      <point x="375" y="986"/>
      <point x="244" y="881"/>
      <point x="170" y="720" type="curve"/>
    </contour>
    <contour>
      <point x="332" y="57"/>
      <point x="243" y="246"/>
      <point x="258" y="520" type="curve" smooth="yes"/>
      <point x="270" y="723"/>
      <point x="365" y="911"/>
      <point x="550" y="911" type="curve" smooth="yes"/>
      <point x="728" y="911"/>
      <point x="801" y="708"/>
      <point x="789" y="504" type="curve" smooth="yes"/>
      <point x="776" y="247"/>
      <point x="683" y="57"/>
      <point x="492" y="57" type="curve" smooth="yes"/>
    </contour>
  </outline>
</glyph>
<glyph name="ka-cy" format="1">
  <advance width="1175"/>
  <unicode hex="043A"/>
  <outline>
    <contour>
      <point x="355" y="498" type="line"/>
      <point x="573" y="499" type="line" smooth="yes"/>
      <point x="671" y="499"/>
      <point x="713" y="438"/>
      <point x="729" y="246" type="curve" smooth="yes"/>
      <point x="747" y="31"/>
      <point x="803" y="-23"/>
      <point x="897" y="-23" type="curve" smooth="yes"/>
      <point x="1035" y="-23"/>
      <point x="1104" y="93"/>
      <point x="1129" y="208" type="curve"/>
      <point x="1071" y="220" type="line"/>
      <point x="1047" y="118"/>
      <point x="1014" y="89"/>
      <point x="970" y="93" type="curve" smooth="yes"/>
      <point x="912" y="99"/>
      <point x="899" y="154"/>
      <point x="884" y="297" type="curve" smooth="yes"/>
      <point x="870" y="433"/>
      <point x="804" y="539"/>
      <point x="629" y="539" type="curve"/>
      <point x="629" y="557" type="line"/>
      <point x="356" y="557" type="line"/>
    </contour>
    <contour>
      <point x="478" y="520" type="line"/>
      <point x="570" y="520" type="line"/>
      <point x="662" y="520"/>
      <point x="743" y="613"/>
      <point x="791" y="743" type="curve" smooth="yes"/>
      <point x="829" y="847"/>
      <point x="853" y="891"/>
      <point x="892" y="915" type="curve"/>
      <point x="899" y="861"/>
      <point x="938" y="830"/>
      <point x="1006" y="830" type="curve" smooth="yes"/>
      <point x="1066" y="830"/>
      <point x="1101" y="879"/>
      <point x="1101" y="933" type="curve" smooth="yes"/>
      <point x="1101" y="1001"/>
      <point x="1059" y="1047"/>
      <point x="988" y="1047" type="curve" smooth="yes"/>
      <point x="863" y="1047"/>
      <point x="791" y="972"/>
      <point x="718" y="778" type="curve" smooth="yes"/>
      <point x="657" y="614"/>
      <point x="598" y="557"/>
      <point x="478" y="557" type="curve"/>
    </contour>
    <contour>
      <point x="371" y="203"/>
      <point x="386" y="387"/>
      <point x="433" y="709" type="curve" smooth="yes"/>
      <point x="465" y="921"/>
      <point x="451" y="1047"/>
      <point x="298" y="1047" type="curve" smooth="yes"/>
      <point x="135" y="1047"/>
      <point x="48" y="854"/>
      <point x="27" y="758" type="curve"/>
      <point x="84" y="746" type="line"/>
      <point x="127" y="891"/>
      <point x="192" y="944"/>
      <point x="237" y="944" type="curve" smooth="yes"/>
      <point x="294" y="944"/>
      <point x="293" y="881"/>
      <point x="290" y="825" type="curve" smooth="yes"/>
      <point x="288" y="782"/>
      <point x="279" y="739"/>
      <point x="245" y="473" type="curve" smooth="yes"/>
      <point x="213" y="215"/>
      <point x="207" y="123"/>
      <point x="206" y="53" type="curve" smooth="yes"/>
      <point x="205" y="31"/>
      <point x="205" y="18"/>
      <point x="207" y="0" type="curve"/>
      <point x="377" y="0" type="line"/>
      <point x="374" y="41"/>
      <point x="372" y="79"/>
      <point x="372" y="112" type="curve" smooth="yes"/>
    </contour>
  </outline>
</glyph>
<glyph name="en-cy" format="1">
  <advance width="1222"/>
  <unicode hex="043D"/>
  <outline>
    <contour>
      <point x="440" y="741" type="line" smooth="yes"/>
      <point x="459" y="896"/>
      <point x="452" y="1047"/>
      <point x="298" y="1047" type="curve" smooth="yes"/>
      <point x="135" y="1047"/>
      <point x="48" y="854"/>
      <point x="27" y="758" type="curve"/>
      <point x="84" y="746" type="line"/>
      <point x="128" y="891"/>
      <point x="192" y="944"/>
      <point x="237" y="944" type="curve" smooth="yes"/>
      <point x="284" y="944"/>
      <point x="292" y="901"/>
      <point x="291" y="852" type="curve" smooth="yes"/>
      <point x="290" y="791"/>
      <point x="288" y="783"/>
      <point x="245" y="463" type="curve" smooth="yes"/>
      <point x="211" y="205"/>
      <point x="198" y="123"/>
      <point x="197" y="53" type="curve" smooth="yes"/>
      <point x="197" y="31"/>
      <point x="196" y="18"/>
      <point x="198" y="0" type="curve"/>
      <point x="370" y="0" type="line"/>
      <point x="365" y="39"/>
      <point x="362" y="78"/>
      <point x="368" y="128" type="curve" smooth="yes"/>
    </contour>
    <contour>
      <point x="887" y="447" type="line"/>
      <point x="893" y="524" type="line"/>
      <point x="367" y="524" type="line"/>
      <point x="359" y="442" type="line"/>
    </contour>
    <contour>
      <point x="844" y="662"/>
      <point x="772" y="302"/>
      <point x="772" y="162" type="curve" smooth="yes"/>
      <point x="772" y="51"/>
      <point x="819" y="-23"/>
      <point x="930" y="-23" type="curve" smooth="yes"/>
      <point x="1094" y="-23"/>
      <point x="1178" y="170"/>
      <point x="1196" y="266" type="curve"/>
      <point x="1139" y="278" type="line"/>
      <point x="1098" y="133"/>
      <point x="1034" y="82"/>
      <point x="989" y="82" type="curve" smooth="yes"/>
      <point x="946" y="82"/>
      <point x="934" y="123"/>
      <point x="934" y="172" type="curve" smooth="yes"/>
      <point x="934" y="299"/>
      <point x="1014" y="815"/>
      <point x="1014" y="971" type="curve" smooth="yes"/>
      <point x="1014" y="993"/>
      <point x="1014" y="1006"/>
      <point x="1012" y="1024" type="curve"/>
      <point x="840" y="1024" type="line"/>
      <point x="842" y="984"/>
      <point x="844" y="946"/>
      <point x="844" y="906" type="curve" smooth="yes"/>
    </contour>
  </outline>
</glyph>
<glyph name="sha-cy" format="1">
  <advance width="1794"/>
  <unicode hex="0448"/>
  <outline>
    <contour>
      <point x="1026" y="993"/>
      <point x="1026" y="1006"/>
      <point x="1024" y="1024" type="curve"/>
      <point x="852" y="1024" type="line"/>
      <point x="854" y="989"/>
      <point x="856" y="956"/>
      <point x="856" y="915" type="curve" smooth="yes"/>
      <point x="856" y="569"/>
      <point x="674" y="73"/>
      <point x="481" y="73" type="curve" smooth="yes"/>
      <point x="402" y="73"/>
      <point x="383" y="151"/>
      <point x="383" y="198" type="curve" smooth="yes"/>
      <point x="383" y="415"/>
      <point x="457" y="699"/>
      <point x="457" y="849" type="curve" smooth="yes"/>
      <point x="457" y="976"/>
      <point x="422" y="1047"/>
      <point x="293" y="1047" type="curve" smooth="yes"/>
      <point x="129" y="1047"/>
      <point x="43" y="855"/>
      <point x="25" y="759" type="curve"/>
      <point x="82" y="746" type="line"/>
      <point x="123" y="892"/>
      <point x="189" y="945"/>
      <point x="234" y="945" type="curve" smooth="yes"/>
      <point x="283" y="945"/>
      <point x="289" y="900"/>
      <point x="289" y="849" type="curve" smooth="yes"/>
      <point x="289" y="732"/>
      <point x="221" y="470"/>
      <point x="221" y="243" type="curve" smooth="yes"/>
      <point x="221" y="101"/>
      <point x="272" y="-23"/>
      <point x="436" y="-23" type="curve" smooth="yes"/>
      <point x="548" y="-23"/>
      <point x="684" y="55"/>
      <point x="819" y="428" type="curve"/>
      <point x="826" y="428" type="line"/>
      <point x="801" y="326"/>
      <point x="791" y="289"/>
      <point x="791" y="211" type="curve" smooth="yes"/>
      <point x="791" y="111"/>
      <point x="845" y="-23"/>
      <point x="1009" y="-23" type="curve" smooth="yes"/>
      <point x="1122" y="-23"/>
      <point x="1256" y="61"/>
      <point x="1385" y="434" type="curve"/>
      <point x="1391" y="434" type="line"/>
      <point x="1364" y="285"/>
      <point x="1295" y="-23"/>
      <point x="1512" y="-23" type="curve" smooth="yes"/>
      <point x="1675" y="-23"/>
      <point x="1759" y="170"/>
      <point x="1778" y="266" type="curve"/>
      <point x="1721" y="278" type="line"/>
      <point x="1680" y="133"/>
      <point x="1616" y="80"/>
      <point x="1571" y="80" type="curve" smooth="yes"/>
      <point x="1524" y="80"/>
      <point x="1516" y="123"/>
      <point x="1516" y="172" type="curve" smooth="yes"/>
      <point x="1516" y="233"/>
      <point x="1520" y="241"/>
      <point x="1557" y="561" type="curve" smooth="yes"/>
      <point x="1587" y="819"/>
      <point x="1596" y="901"/>
      <point x="1596" y="971" type="curve" smooth="yes"/>
      <point x="1596" y="993"/>
      <point x="1596" y="1006"/>
      <point x="1594" y="1024" type="curve"/>
      <point x="1422" y="1024" type="line"/>
      <point x="1424" y="989"/>
      <point x="1426" y="956"/>
      <point x="1426" y="915" type="curve" smooth="yes"/>
      <point x="1426" y="569"/>
      <point x="1239" y="73"/>
      <point x="1051" y="73" type="curve" smooth="yes"/>
      <point x="971" y="73"/>
      <point x="955" y="143"/>
      <point x="953" y="190" type="curve" smooth="yes"/>
      <point x="948" y="362"/>
      <point x="1026" y="764"/>
      <point x="1026" y="971" type="curve" smooth="yes"/>
    </contour>
  </outline>
</glyph>
<glyph name="iu-cy" format="1">
  <advance width="1508"/>
  <unicode hex="044E"/>
  <outline>
    <contour>
      <point x="427" y="741" type="line" smooth="yes"/>
      <point x="443" y="896"/>
      <point x="434" y="1047"/>
      <point x="280" y="1047" type="curve" smooth="yes"/>
      <point x="117" y="1047"/>
      <point x="33" y="854"/>
      <point x="14" y="758" type="curve"/>
      <point x="71" y="746" type="line"/>
      <point x="112" y="891"/>
      <point x="176" y="944"/>
      <point x="221" y="944" type="curve" smooth="yes"/>
      <point x="268" y="944"/>
      <point x="276" y="901"/>
      <point x="276" y="852" type="curve" smooth="yes"/>
      <point x="276" y="791"/>
      <point x="274" y="783"/>
      <point x="237" y="463" type="curve" smooth="yes"/>
      <point x="207" y="205"/>
      <point x="196" y="123"/>
      <point x="196" y="53" type="curve" smooth="yes"/>
      <point x="196" y="31"/>
      <point x="196" y="18"/>
      <point x="198" y="0" type="curve"/>
      <point x="370" y="0" type="line"/>
      <point x="364" y="39"/>
      <point x="361" y="78"/>
      <point x="366" y="128" type="curve" smooth="yes"/>
    </contour>
    <contour>
      <point x="617" y="447" type="line"/>
      <point x="623" y="524" type="line"/>
      <point x="367" y="524" type="line"/>
      <point x="359" y="442" type="line"/>
    </contour>
    <contour>
      <point x="1232" y="336"/>
      <point x="1150" y="50"/>
      <point x="963" y="55" type="curve" smooth="yes"/>
      <point x="804" y="59"/>
      <point x="757" y="315"/>
      <point x="760" y="504" type="curve" smooth="yes"/>
      <point x="765" y="766"/>
      <point x="874" y="974"/>
      <point x="1026" y="971" type="curve" smooth="yes"/>
      <point x="1197" y="968"/>
      <point x="1240" y="727"/>
      <point x="1236" y="535" type="curve" smooth="yes"/>
    </contour>
    <contour>
      <point x="1232" y="-23"/>
      <point x="1416" y="268"/>
      <point x="1416" y="598" type="curve" smooth="yes"/>
      <point x="1416" y="885"/>
      <point x="1248" y="1047"/>
      <point x="1057" y="1047" type="curve" smooth="yes"/>
      <point x="772" y="1047"/>
      <point x="581" y="768"/>
      <point x="581" y="436" type="curve" smooth="yes"/>
      <point x="581" y="182"/>
      <point x="704" y="-23"/>
      <point x="944" y="-23" type="curve" smooth="yes"/>
    </contour>
  </outline>
</glyph>
<glyph name="dje-cy" format="1">
  <advance width="1095"/>
  <unicode hex="0452"/>
  <outline>
    <contour>
      <point x="311" y="590" type="line"/>
      <point x="322" y="733"/>
      <point x="354" y="1059"/>
      <point x="373" y="1198" type="curve" smooth="yes"/>
      <point x="385" y="1290"/>
      <point x="412" y="1444"/>
      <point x="428" y="1546" type="curve"/>
      <point x="369" y="1546" type="line"/>
      <point x="336" y="1518"/>
      <point x="289" y="1491"/>
      <point x="109" y="1491" type="curve"/>
      <point x="100" y="1409" type="line"/>
      <point x="244" y="1417" type="line"/>
      <point x="238" y="1382"/>
      <point x="236" y="1378"/>
      <point x="225" y="1309" type="curve" smooth="yes"/>
      <point x="178" y="991"/>
      <point x="123" y="240"/>
      <point x="123" y="53" type="curve" smooth="yes"/>
      <point x="123" y="31"/>
      <point x="123" y="18"/>
      <point x="125" y="0" type="curve"/>
      <point x="293" y="0" type="line"/>
      <point x="291" y="35"/>
      <point x="289" y="68"/>
      <point x="289" y="109" type="curve" smooth="yes"/>
      <point x="289" y="487"/>
      <point x="498" y="951"/>
      <point x="680" y="951" type="curve" smooth="yes"/>
      <point x="760" y="951"/>
      <point x="788" y="873"/>
      <point x="788" y="826" type="curve" smooth="yes"/>
      <point x="788" y="769"/>
      <point x="775" y="587"/>
      <point x="750" y="371" type="curve" smooth="yes"/>
      <point x="702" y="-45"/>
      <point x="587" y="-438"/>
      <point x="445" y="-438" type="curve" smooth="yes"/>
      <point x="431" y="-438"/>
      <point x="415" y="-433"/>
      <point x="405" y="-427" type="curve"/>
      <point x="413" y="-357"/>
      <point x="373" y="-316"/>
      <point x="318" y="-316" type="curve" smooth="yes"/>
      <point x="259" y="-316"/>
      <point x="230" y="-365"/>
      <point x="230" y="-411" type="curve" smooth="yes"/>
      <point x="230" y="-494"/>
      <point x="316" y="-522"/>
      <point x="385" y="-522" type="curve" smooth="yes"/>
      <point x="711" y="-522"/>
      <point x="868" y="20"/>
      <point x="913" y="393" type="curve" smooth="yes"/>
      <point x="933" y="547"/>
      <point x="946" y="673"/>
      <point x="946" y="781" type="curve" smooth="yes"/>
      <point x="946" y="923"/>
      <point x="885" y="1047"/>
      <point x="721" y="1047" type="curve" smooth="yes"/>
      <point x="588" y="1047"/>
      <point x="457" y="963"/>
      <point x="318" y="590" type="curve"/>
    </contour>
    <contour>
      <point x="49" y="1244" type="line"/>
      <point x="43" y="1156" type="line"/>
      <point x="756" y="1164" type="line"/>
      <point x="762" y="1244" type="line"/>
    </contour>
  </outline>
</glyph>
<glyph name="tshe-cy" format="1">
  <advance width="1171"/>
  <unicode hex="045B"/>
  <outline>
    <contour>
      <point x="83" y="1273" type="line"/>
      <point x="77" y="1192" type="line"/>
      <point x="820" y="1200" type="line"/>
      <point x="826" y="1273" type="line"/>
    </contour>
    <component base="h"/>
  </outline>
</glyph>
<glyph name="ustraitstroke-cy" format="1">
  <advance width="1053"/>
  <unicode hex="04B1"/>
  <outline>
    <contour>
      <point x="630" y="-124" type="line"/>
      <point x="795" y="158"/>
      <point x="954" y="482"/>
      <point x="954" y="785" type="curve" smooth="yes"/>
      <point x="954" y="914"/>
      <point x="915" y="1047"/>
      <point x="790" y="1047" type="curve" smooth="yes"/>
      <point x="741" y="1047"/>
      <point x="695" y="1015"/>
      <point x="695" y="957" type="curve" smooth="yes"/>
      <point x="695" y="914"/>
      <point x="728" y="876"/>
      <point x="777" y="876" type="curve" smooth="yes"/>
      <point x="797" y="876"/>
      <point x="815" y="881"/>
      <point x="827" y="889" type="curve"/>
      <point x="843" y="866"/>
      <point x="858" y="811"/>
      <point x="858" y="744" type="curve" smooth="yes"/>
      <point x="858" y="520"/>
      <point x="739" y="240"/>
      <point x="624" y="39" type="curve"/>
      <point x="620" y="39" type="line"/>
      <point x="611" y="125"/>
      <point x="604" y="182"/>
      <point x="589" y="248" type="curve" smooth="yes"/>
      <point x="546" y="438"/>
      <point x="499" y="650"/>
      <point x="438" y="816" type="curve" smooth="yes"/>
      <point x="401" y="915"/>
      <point x="344" y="1047"/>
      <point x="206" y="1047" type="curve" smooth="yes"/>
      <point x="38" y="1047"/>
      <point x="6" y="839"/>
      <point x="20" y="693" type="curve"/>
      <point x="86" y="700" type="line"/>
      <point x="73" y="826"/>
      <point x="104" y="907"/>
      <point x="155" y="914" type="curve" smooth="yes"/>
      <point x="208" y="920"/>
      <point x="235" y="855"/>
      <point x="256" y="808" type="curve" smooth="yes"/>
      <point x="368" y="531"/>
      <point x="457" y="204"/>
      <point x="498" y="-158" type="curve"/>
    </contour>
    <contour>
      <point x="510" y="18" type="line"/>
      <point x="496" y="-174" type="line" smooth="yes"/>
      <point x="484" y="-334"/>
      <point x="486" y="-461"/>
      <point x="371" y="-461" type="curve"/>
      <point x="371" y="-522" type="line"/>
      <point x="758" y="-522" type="line"/>
      <point x="758" y="-438" type="line"/>
      <point x="629" y="-444" type="line"/>
      <point x="642" y="-397"/>
      <point x="642" y="-330"/>
      <point x="646" y="-274" type="curve" smooth="yes"/>
      <point x="661" y="-25" type="line"/>
    </contour>
    <contour>
      <point x="209" y="-112" type="line"/>
      <point x="958" y="-112" type="line"/>
      <point x="965" y="-6" type="line"/>
      <point x="215" y="3" type="line"/>
    </contour>
  </outline>
</glyph>
<glyph name="daggerdbl" format="1">
  <advance width="1094"/>
  <unicode hex="2021"/>
  <outline>
    <contour>
      <point x="520" y="1556"/>
      <point x="493" y="1472"/>
      <point x="495" y="1407" type="curve" smooth="yes"/>
      <point x="501" y="1255"/>
      <point x="526" y="1067"/>
      <point x="543" y="944" type="curve"/>
      <point x="444" y="965"/>
      <point x="344" y="984"/>
      <point x="244" y="997" type="curve" smooth="yes"/>
      <point x="178" y="1006"/>
      <point x="94" y="1004"/>
      <point x="90" y="928" type="curve" smooth="yes"/>
      <point x="86" y="852"/>
      <point x="170" y="850"/>
      <point x="235" y="858" type="curve" smooth="yes"/>
      <point x="337" y="871"/>
      <point x="438" y="890"/>
      <point x="540" y="911" type="curve"/>
      <point x="501" y="756"/>
      <point x="470" y="590"/>
      <point x="436" y="515" type="curve"/>
      <point x="462" y="439"/>
      <point x="476" y="262"/>
      <point x="499" y="106" type="curve"/>
      <point x="401" y="126"/>
      <point x="299" y="146"/>
      <point x="201" y="159" type="curve" smooth="yes"/>
      <point x="135" y="167"/>
      <point x="51" y="165"/>
      <point x="47" y="89" type="curve" smooth="yes"/>
      <point x="43" y="14"/>
      <point x="127" y="12"/>
      <point x="192" y="20" type="curve" smooth="yes"/>
      <point x="292" y="33"/>
      <point x="396" y="52"/>
      <point x="498" y="73" type="curve"/>
      <point x="469" y="-51"/>
      <point x="425" y="-254"/>
      <point x="403" y="-406" type="curve" smooth="yes"/>
      <point x="393" y="-471"/>
      <point x="407" y="-555"/>
      <point x="483" y="-555" type="curve" smooth="yes"/>
      <point x="559" y="-555"/>
      <point x="586" y="-471"/>
      <point x="583" y="-406" type="curve" smooth="yes"/>
      <point x="577" y="-253"/>
      <point x="553" y="-51"/>
      <point x="536" y="73" type="curve"/>
      <point x="634" y="52"/>
      <point x="735" y="33"/>
      <point x="835" y="20" type="curve" smooth="yes"/>
      <point x="901" y="12"/>
      <point x="985" y="14"/>
      <point x="989" y="89" type="curve" smooth="yes"/>
      <point x="993" y="165"/>
      <point x="909" y="167"/>
      <point x="844" y="159" type="curve" smooth="yes"/>
      <point x="742" y="146"/>
      <point x="639" y="127"/>
      <point x="538" y="106" type="curve"/>
      <point x="577" y="262"/>
      <point x="611" y="440"/>
      <point x="645" y="515" type="curve"/>
      <point x="619" y="590"/>
      <point x="603" y="756"/>
      <point x="580" y="911" type="curve"/>
      <point x="678" y="890"/>
      <point x="780" y="871"/>
      <point x="878" y="858" type="curve" smooth="yes"/>
      <point x="944" y="850"/>
      <point x="1028" y="852"/>
      <point x="1032" y="928" type="curve" smooth="yes"/>
      <point x="1036" y="1004"/>
      <point x="952" y="1006"/>
      <point x="887" y="997" type="curve" smooth="yes"/>
      <point x="786" y="984"/>
      <point x="683" y="965"/>
      <point x="580" y="944" type="curve"/>
      <point x="609" y="1067"/>
      <point x="654" y="1255"/>
      <point x="676" y="1407" type="curve" smooth="yes"/>
      <point x="686" y="1472"/>
      <point x="672" y="1556"/>
      <point x="596" y="1556" type="curve" smooth="yes"/>
    </contour>
  </outline>
</glyph>
<glyph name="uni2074" format="1">
  <advance width="766"/>
  <unicode hex="2074"/>
  <outline>
    <contour>
      <point x="623" y="695" type="line"/>
      <point x="537" y="691" type="line"/>
      <point x="544" y="840" type="line"/>
      <point x="659" y="840" type="line"/>
      <point x="663" y="914" type="line"/>
      <point x="548" y="916" type="line"/>
      <point x="575" y="1467" type="line"/>
      <point x="520" y="1467" type="line"/>
      <point x="88" y="901" type="line"/>
      <point x="84" y="840" type="line"/>
      <point x="431" y="840" type="line"/>
      <point x="430" y="815" type="line" smooth="yes"/>
      <point x="426" y="738"/>
      <point x="405" y="686"/>
      <point x="321" y="684" type="curve"/>
      <point x="319" y="625" type="line"/>
      <point x="618" y="625" type="line"/>
    </contour>
    <contour>
      <point x="455" y="1284" type="line"/>
      <point x="457" y="1284" type="line"/>
      <point x="436" y="917" type="line"/>
      <point x="183" y="921" type="line"/>
    </contour>
  </outline>
</glyph>
<glyph name="uni2215" format="1">
  <advance width="726"/>
  <unicode hex="2215"/>
  <outline>
    <contour>
      <point x="-72" y="-81" type="line"/>
      <point x="-2" y="-116" type="line"/>
      <point x="766" y="1487" type="line"/>
      <point x="686" y="1528" type="line"/>
    </contour>
  </outline>
</glyph>
<glyph name="infinity" format="1">
  <advance width="1714"/>
  <unicode hex="221E"/>
  <outline>
    <contour>
      <point x="1113" y="1149"/>
      <point x="960" y="1019"/>
      <point x="872" y="850" type="curve"/>
      <point x="766" y="1039"/>
      <point x="657" y="1139"/>
      <point x="492" y="1139" type="curve" smooth="yes"/>
      <point x="275" y="1139"/>
      <point x="136" y="956"/>
      <point x="123" y="723" type="curve"/>
      <point x="113" y="518"/>
      <point x="199" y="285"/>
      <point x="465" y="285" type="curve" smooth="yes"/>
      <point x="629" y="285"/>
      <point x="767" y="415"/>
      <point x="853" y="571" type="curve"/>
      <point x="987" y="340"/>
      <point x="1098" y="276"/>
      <point x="1242" y="276" type="curve" smooth="yes"/>
      <point x="1450" y="276"/>
      <point x="1596" y="473"/>
      <point x="1608" y="707" type="curve"/>
      <point x="1622" y="952"/>
      <point x="1524" y="1149"/>
      <point x="1278" y="1149" type="curve" smooth="yes"/>
    </contour>
    <contour>
      <point x="654" y="985"/>
      <point x="736" y="791"/>
      <point x="807" y="655" type="curve" smooth="yes"/>
      <point x="808" y="653"/>
      <point x="808" y="651"/>
      <point x="809" y="650" type="curve"/>
      <point x="715" y="504"/>
      <point x="593" y="424"/>
      <point x="465" y="424" type="curve" smooth="yes"/>
      <point x="308" y="424"/>
      <point x="199" y="547"/>
      <point x="207" y="709" type="curve"/>
      <point x="218" y="885"/>
      <point x="342" y="985"/>
      <point x="474" y="985" type="curve" smooth="yes"/>
    </contour>
    <contour>
      <point x="1426" y="1016"/>
      <point x="1530" y="887"/>
      <point x="1522" y="725" type="curve" smooth="yes"/>
      <point x="1514" y="565"/>
      <point x="1412" y="424"/>
      <point x="1239" y="424" type="curve" smooth="yes"/>
      <point x="1088" y="424"/>
      <point x="992" y="610"/>
      <point x="915" y="766" type="curve"/>
      <point x="1041" y="951"/>
      <point x="1157" y="1016"/>
      <point x="1282" y="1016" type="curve" smooth="yes"/>
    </contour>
  </outline>
</glyph>
<glyph name="lozenge" format="1">
  <advance width="993"/>
  <unicode hex="25CA"/>
  <outline>
    <contour>
      <point x="531" y="1556" type="line"/>
      <point x="84" y="791" type="line"/>
      <point x="82" y="737" type="line"/>
      <point x="441" y="-33" type="line"/>
      <point x="494" y="-33" type="line"/>
      <point x="930" y="752" type="line"/>
      <point x="932" y="805" type="line"/>
      <point x="584" y="1556" type="line"/>
    </contour>
    <contour>
      <point x="832" y="778" type="line"/>
      <point x="480" y="129" type="line"/>
      <point x="476" y="129" type="line"/>
      <point x="179" y="770" type="line"/>
      <point x="547" y="1409" type="line"/>
      <point x="551" y="1409" type="line"/>
    </contour>
  </outline>
</glyph>
<glyph name="uniEFFD" format="1">
  <advance width="1030"/>
  <unicode hex="EFFD"/>
  <outline>
    <contour>
      <point x="59" y="0" type="line"/>
      <point x="907" y="0" type="line"/>
      <point x="960" y="1024" type="line"/>
      <point x="112" y="1024" type="line"/>
    </contour>
    <contour>
      <point x="273" y="949" type="line"/>
      <point x="791" y="949" type="line"/>
      <point x="746" y="75" type="line"/>
      <point x="228" y="75" type="line"/>
    </contour>
  </outline>
</glyph>
<glyph name="Breve" format="1">
  <advance width="600"/>
  <outline>
    <contour>
      <point x="581" y="1836"/>
      <point x="480" y="1782"/>
      <point x="376" y="1782" type="curve" smooth="yes"/>
      <point x="272" y="1782"/>
      <point x="177" y="1836"/>
      <point x="138" y="1892" type="curve"/>
      <point x="82" y="1868" type="line"/>
      <point x="135" y="1731"/>
      <point x="242" y="1657"/>
      <point x="367" y="1657" type="curve" smooth="yes"/>
      <point x="492" y="1657"/>
      <point x="609" y="1731"/>
      <point x="682" y="1868" type="curve"/>
      <point x="628" y="1892" type="line"/>
    </contour>
    <contour>
      <point x="340" y="1434" type="move" name="_top"/>
    </contour>
  </outline>
</glyph>
<glyph name="Ring" format="1">
  <advance width="643"/>
  <outline>
    <contour>
      <point x="381" y="1858"/>
      <point x="440" y="1804"/>
      <point x="440" y="1675" type="curve" smooth="yes"/>
      <point x="440" y="1591"/>
      <point x="387" y="1532"/>
      <point x="332" y="1530" type="curve" smooth="yes"/>
      <point x="256" y="1528"/>
      <point x="203" y="1599"/>
      <point x="203" y="1700" type="curve" smooth="yes"/>
      <point x="203" y="1786"/>
      <point x="248" y="1849"/>
      <point x="311" y="1853" type="curve" smooth="yes"/>
    </contour>
    <contour>
      <point x="203" y="1913"/>
      <point x="90" y="1821"/>
      <point x="94" y="1679" type="curve" smooth="yes"/>
      <point x="100" y="1530"/>
      <point x="209" y="1468"/>
      <point x="324" y="1468" type="curve" smooth="yes"/>
      <point x="438" y="1468"/>
      <point x="553" y="1556"/>
      <point x="549" y="1704" type="curve" smooth="yes"/>
      <point x="543" y="1851"/>
      <point x="430" y="1913"/>
      <point x="319" y="1913" type="curve" smooth="yes"/>
    </contour>
  </outline>
</glyph>
<glyph name="foundry" format="1">
  <advance width="2523"/>
  <outline>
    <contour>
      <point x="888" y="481"/>
      <point x="893" y="391"/>
      <point x="893" y="302" type="curve" smooth="yes"/>
      <point x="893" y="-65"/>
      <point x="797" y="-395"/>
      <point x="566" y="-395" type="curve" smooth="yes"/>
      <point x="466" y="-395"/>
      <point x="440" y="-338"/>
      <point x="440" y="-235" type="curve" smooth="yes"/>
      <point x="440" y="-189"/>
      <point x="450" y="-146"/>
      <point x="461" y="-107" type="curve"/>
      <point x="508" y="-107"/>
      <point x="565" y="-122"/>
      <point x="603" y="-160" type="curve"/>
      <point x="599" y="-195"/>
      <point x="593" y="-236"/>
      <point x="593" y="-276" type="curve" smooth="yes"/>
      <point x="593" y="-300"/>
      <point x="596" y="-323"/>
      <point x="600" y="-342" type="curve"/>
      <point x="720" y="-265"/>
      <point x="722" y="-138"/>
      <point x="745" y="52" type="curve"/>
      <point x="738" y="40"/>
      <point x="720" y="25"/>
      <point x="702" y="25" type="curve" smooth="yes"/>
      <point x="633" y="25"/>
      <point x="587" y="67"/>
      <point x="556" y="129" type="curve"/>
      <point x="536" y="71"/>
      <point x="489" y="3"/>
      <point x="392" y="3" type="curve" smooth="yes"/>
      <point x="175" y="3"/>
      <point x="90" y="212"/>
      <point x="85" y="416" type="curve" smooth="yes"/>
      <point x="83" y="650"/>
      <point x="140" y="886"/>
      <point x="297" y="1023" type="curve"/>
      <point x="383" y="1005"/>
      <point x="513" y="974"/>
      <point x="513" y="795" type="curve" smooth="yes"/>
      <point x="513" y="725"/>
      <point x="476" y="668"/>
      <point x="423" y="623" type="curve"/>
      <point x="406" y="604"/>
      <point x="406" y="618"/>
      <point x="409" y="626" type="curve"/>
      <point x="410" y="639"/>
      <point x="411" y="653"/>
      <point x="411" y="666" type="curve" smooth="yes"/>
      <point x="411" y="739"/>
      <point x="387" y="828"/>
      <point x="367" y="853" type="curve"/>
      <point x="316" y="805"/>
      <point x="272" y="615"/>
      <point x="272" y="428" type="curve" smooth="yes"/>
      <point x="272" y="269"/>
      <point x="304" y="114"/>
      <point x="387" y="55" type="curve"/>
      <point x="461" y="79"/>
      <point x="508" y="162"/>
      <point x="529" y="209" type="curve"/>
      <point x="509" y="275"/>
      <point x="503" y="353"/>
      <point x="503" y="429" type="curve" smooth="yes"/>
      <point x="503" y="501"/>
      <point x="513" y="549"/>
      <point x="530" y="582" type="curve"/>
      <point x="560" y="576"/>
      <point x="629" y="564"/>
      <point x="666" y="529" type="curve"/>
      <point x="663" y="481"/>
      <point x="662" y="434"/>
      <point x="662" y="387" type="curve" smooth="yes"/>
      <point x="662" y="284"/>
      <point x="670" y="185"/>
      <point x="699" y="95" type="curve"/>
      <point x="720" y="100"/>
      <point x="726" y="123"/>
      <point x="729" y="133" type="curve"/>
      <point x="741" y="186"/>
      <point x="745" y="244"/>
      <point x="745" y="300" type="curve" smooth="yes"/>
      <point x="745" y="432"/>
      <point x="721" y="562"/>
      <point x="710" y="636" type="curve"/>
      <point x="760" y="643"/>
      <point x="840" y="609"/>
      <point x="878" y="569" type="curve"/>
    </contour>
    <contour>
      <point x="939" y="593"/>
      <point x="969" y="589"/>
      <point x="992" y="584" type="curve"/>
      <point x="1017" y="579"/>
      <point x="1038" y="567"/>
      <point x="1053" y="549" type="curve"/>
      <point x="1075" y="511"/>
      <point x="1094" y="456"/>
      <point x="1100" y="380" type="curve"/>
      <point x="1132" y="442"/>
      <point x="1154" y="485"/>
      <point x="1167" y="524" type="curve"/>
      <point x="1167" y="549"/>
      <point x="1178" y="593"/>
      <point x="1189" y="615" type="curve"/>
      <point x="1249" y="609"/>
      <point x="1305" y="593"/>
      <point x="1324" y="556" type="curve"/>
      <point x="1317" y="515"/>
      <point x="1311" y="464"/>
      <point x="1311" y="415" type="curve" smooth="yes"/>
      <point x="1311" y="383"/>
      <point x="1314" y="351"/>
      <point x="1319" y="324" type="curve"/>
      <point x="1301" y="319"/>
      <point x="1287" y="316"/>
      <point x="1272" y="316" type="curve" smooth="yes"/>
      <point x="1220" y="316"/>
      <point x="1190" y="348"/>
      <point x="1181" y="411" type="curve"/>
      <point x="1167" y="371"/>
      <point x="1127" y="332"/>
      <point x="1114" y="279" type="curve"/>
      <point x="1114" y="231"/>
      <point x="1114" y="152"/>
      <point x="1100" y="111" type="curve"/>
      <point x="1084" y="58"/>
      <point x="1052" y="16"/>
      <point x="1000" y="16" type="curve" smooth="yes"/>
      <point x="993" y="16"/>
      <point x="987" y="17"/>
      <point x="980" y="19" type="curve"/>
      <point x="969" y="189"/>
      <point x="962" y="445"/>
      <point x="900" y="595" type="curve"/>
    </contour>
    <contour>
      <point x="1810" y="98"/>
      <point x="1850" y="139"/>
      <point x="1852" y="179" type="curve"/>
      <point x="1835" y="251"/>
      <point x="1830" y="335"/>
      <point x="1830" y="398" type="curve" smooth="yes"/>
      <point x="1830" y="428"/>
      <point x="1830" y="453"/>
      <point x="1832" y="469" type="curve"/>
      <point x="1801" y="431"/>
      <point x="1771" y="307"/>
      <point x="1771" y="196" type="curve" smooth="yes"/>
      <point x="1771" y="154"/>
      <point x="1776" y="113"/>
      <point x="1787" y="79" type="curve"/>
    </contour>
    <contour>
      <point x="2256" y="445"/>
      <point x="2280" y="591"/>
      <point x="2280" y="707" type="curve" smooth="yes"/>
      <point x="2280" y="747"/>
      <point x="2278" y="783"/>
      <point x="2272" y="811" type="curve"/>
      <point x="2244" y="695"/>
      <point x="2215" y="524"/>
      <point x="2208" y="375" type="curve"/>
    </contour>
    <contour>
      <point x="1499" y="405"/>
      <point x="1485" y="311"/>
      <point x="1485" y="220" type="curve"/>
      <point x="1529" y="226"/>
      <point x="1549" y="309"/>
      <point x="1549" y="380" type="curve" smooth="yes"/>
      <point x="1549" y="422"/>
      <point x="1534" y="464"/>
      <point x="1524" y="484" type="curve"/>
    </contour>
    <contour>
      <point x="1666" y="835"/>
      <point x="1621" y="659"/>
      <point x="1487" y="638" type="curve"/>
      <point x="1500" y="612"/>
      <point x="1513" y="586"/>
      <point x="1524" y="566" type="curve"/>
      <point x="1524" y="565"/>
      <point x="1524" y="565"/>
      <point x="1526" y="564" type="curve"/>
      <point x="1578" y="538"/>
      <point x="1609" y="485"/>
      <point x="1609" y="400" type="curve" smooth="yes"/>
      <point x="1609" y="302"/>
      <point x="1567" y="193"/>
      <point x="1489" y="169" type="curve"/>
      <point x="1499" y="129"/>
      <point x="1508" y="89"/>
      <point x="1535" y="71" type="curve"/>
      <point x="1591" y="95"/>
      <point x="1623" y="162"/>
      <point x="1641" y="207" type="curve"/>
      <point x="1641" y="284" type="line"/>
      <point x="1646" y="387"/>
      <point x="1669" y="484"/>
      <point x="1735" y="554" type="curve"/>
      <point x="1768" y="554"/>
      <point x="1806" y="546"/>
      <point x="1836" y="535" type="curve"/>
      <point x="1841" y="549"/>
      <point x="1856" y="628"/>
      <point x="1869" y="636" type="curve"/>
      <point x="1900" y="645"/>
      <point x="1972" y="615"/>
      <point x="1994" y="593" type="curve"/>
      <point x="1983" y="514"/>
      <point x="1974" y="414"/>
      <point x="1974" y="314" type="curve" smooth="yes"/>
      <point x="1974" y="224"/>
      <point x="1981" y="135"/>
      <point x="2001" y="67" type="curve"/>
      <point x="2029" y="60"/>
      <point x="2060" y="125"/>
      <point x="2072" y="147" type="curve"/>
      <point x="2069" y="168" type="line" smooth="yes"/>
      <point x="2050" y="251"/>
      <point x="2042" y="344"/>
      <point x="2042" y="438" type="curve" smooth="yes"/>
      <point x="2042" y="642"/>
      <point x="2083" y="854"/>
      <point x="2160" y="993" type="curve"/>
      <point x="2329" y="965"/>
      <point x="2374" y="892"/>
      <point x="2374" y="718" type="curve" smooth="yes"/>
      <point x="2374" y="554"/>
      <point x="2317" y="356"/>
      <point x="2210" y="306" type="curve"/>
      <point x="2210" y="207"/>
      <point x="2230" y="127"/>
      <point x="2271" y="67" type="curve"/>
      <point x="2329" y="111"/>
      <point x="2374" y="187"/>
      <point x="2404" y="309" type="curve"/>
      <point x="2414" y="314"/>
      <point x="2419" y="312"/>
      <point x="2424" y="312" type="curve"/>
      <point x="2425" y="302"/>
      <point x="2425" y="293"/>
      <point x="2425" y="281" type="curve" smooth="yes"/>
      <point x="2425" y="169"/>
      <point x="2390" y="11"/>
      <point x="2248" y="11" type="curve" smooth="yes"/>
      <point x="2178" y="11"/>
      <point x="2126" y="43"/>
      <point x="2092" y="98" type="curve"/>
      <point x="2081" y="55"/>
      <point x="2047" y="11"/>
      <point x="2000" y="11" type="curve" smooth="yes"/>
      <point x="1945" y="11"/>
      <point x="1902" y="60"/>
      <point x="1885" y="100" type="curve"/>
      <point x="1875" y="60"/>
      <point x="1826" y="30"/>
      <point x="1790" y="25" type="curve"/>
      <point x="1714" y="25"/>
      <point x="1674" y="63"/>
      <point x="1660" y="115" type="curve"/>
      <point x="1636" y="76"/>
      <point x="1594" y="32"/>
      <point x="1531" y="25" type="curve"/>
      <point x="1392" y="25"/>
      <point x="1338" y="138"/>
      <point x="1338" y="266" type="curve" smooth="yes"/>
      <point x="1338" y="276"/>
      <point x="1338" y="285"/>
      <point x="1339" y="295" type="curve"/>
      <point x="1341" y="400"/>
      <point x="1363" y="524"/>
      <point x="1399" y="582" type="curve"/>
      <point x="1408" y="583"/>
      <point x="1416" y="584"/>
      <point x="1424" y="584" type="curve" smooth="yes"/>
      <point x="1432" y="584"/>
      <point x="1441" y="583"/>
      <point x="1450" y="582" type="curve"/>
      <point x="1440" y="599"/>
      <point x="1432" y="620"/>
      <point x="1426" y="639" type="curve"/>
      <point x="1349" y="655"/>
      <point x="1280" y="723"/>
      <point x="1223" y="791" type="curve"/>
      <point x="1196" y="815"/>
      <point x="1102" y="811"/>
      <point x="1065" y="845" type="curve"/>
      <point x="1058" y="852"/>
      <point x="1061" y="860"/>
      <point x="1069" y="860" type="curve"/>
      <point x="1071" y="856"/>
      <point x="1240" y="841"/>
      <point x="1267" y="841" type="curve"/>
      <point x="1405" y="867"/>
      <point x="1541" y="889"/>
      <point x="1562" y="910" type="curve"/>
      <point x="1574" y="952"/>
      <point x="1610" y="976"/>
      <point x="1646" y="976" type="curve" smooth="yes"/>
      <point x="1660" y="976"/>
      <point x="1673" y="975"/>
      <point x="1684" y="967" type="curve"/>
      <point x="1709" y="976" type="line"/>
      <point x="1714" y="976"/>
      <point x="1710" y="975"/>
      <point x="1710" y="975" type="curve"/>
      <point x="1705" y="947" type="line"/>
      <point x="1729" y="947" type="line"/>
      <point x="1730" y="946"/>
      <point x="1729" y="946"/>
      <point x="1729" y="946" type="curve"/>
      <point x="1709" y="922" type="line"/>
    </contour>
    <contour>
      <point x="1491" y="589"/>
      <point x="1478" y="612"/>
      <point x="1468" y="636" type="curve"/>
      <point x="1446" y="636" type="line"/>
      <point x="1463" y="580" type="line"/>
      <point x="1478" y="577"/>
      <point x="1491" y="576"/>
      <point x="1504" y="572" type="curve"/>
    </contour>
  </outline>
</glyph>
